<?xml version="1.0" standalone="no"?>
<!DOCTYPE svg PUBLIC "-//W3C//DTD SVG 1.1//EN" "http://www.w3.org/Graphics/SVG/1.1/DTD/svg11.dtd" >
<svg xmlns="http://www.w3.org/2000/svg">
<metadata></metadata>
<defs>
<font id="cuprumitalic" horiz-adv-x="911" >
<font-face units-per-em="2048" ascent="1638" descent="-410" />
<missing-glyph horiz-adv-x="512" />
<glyph horiz-adv-x="0" />
<glyph unicode="&#xd;" horiz-adv-x="681" />
<glyph unicode=" "  horiz-adv-x="512" />
<glyph unicode="&#x09;" horiz-adv-x="512" />
<glyph unicode="&#xa0;" horiz-adv-x="512" />
<glyph unicode="!" horiz-adv-x="471" d="M137 -10l39 225h184l-38 -225h-185zM215 379l160 1055h225l-221 -1055h-164z" />
<glyph unicode="&#x22;" horiz-adv-x="675" d="M299 952l35 482h205l-138 -482h-102zM606 952l35 482h205l-137 -482h-103z" />
<glyph unicode="#" horiz-adv-x="1167" d="M113 410l24 143h215l109 328h-205l27 143h235l133 410h185l-134 -410h226l133 410h184l-133 -410h195l-27 -143h-225l-109 -328h215l-24 -143h-236l-133 -410h-184l133 410h-225l-134 -410h-184l133 410h-194zM526 553h246l109 328h-246z" />
<glyph unicode="$" d="M74 20l16 93h318l96 540q-53 27 -104.5 58.5t-88.5 80.5q-81 109 -49 293q58 334 381 365l31 168h123l-29 -166q152 -8 248 -39l-17 -92h-256l-94 -533q53 -27 106.5 -57.5t92.5 -77.5q89 -107 56.5 -281.5t-123.5 -268t-273 -115.5l-29 -172h-123l29 164h-10 q-189 0 -301 40zM448 1095.5q-29 -161.5 91 -241.5l79 449q-141 -46 -170 -207.5zM535 135q82 29 125 85.5t59 145.5t-16.5 140t-88.5 86z" />
<glyph unicode="%" horiz-adv-x="1392" d="M205 0l1050 1434h185l-1051 -1434h-184zM262 1147q58 307 342 307q139 0 200 -76.5t33 -230.5q-56 -307 -341 -307q-139 0 -199.5 76.5t-34.5 230.5zM416 1147q-29 -184 100 -184q61 0 105.5 42t60.5 142q33 184 -100 184t-166 -184zM807 287q58 307 342 307 q139 0 199.5 -76.5t32.5 -230.5q-56 -307 -341 -307q-139 0 -199.5 76.5t-33.5 230.5zM961 287q-30 -185 100 -185q61 0 105.5 42.5t60.5 142.5q33 184 -101 184q-132 0 -165 -184z" />
<glyph unicode="&#x26;" horiz-adv-x="1054" d="M135 369q31 180 96 307h144l-56 -307q-36 -208 53 -246q23 -10 50 -10t52.5 9t53.5 32q43 38 134 174q-165 310 -210 467q-41 146 -12 311t134.5 256.5t275.5 91.5q195 0 299 -41l-16 -92h-267q-92 0 -158 -59q-88 -79 -98 -277q-8 -169 156 -463l162 277h184l-264 -451 l186 -348h-205l-84 164q-72 -97 -141 -138q-76 -46 -219.5 -46t-214 94t-35.5 295z" />
<glyph unicode="'" horiz-adv-x="368" d="M299 952l35 482h205l-138 -482h-102z" />
<glyph unicode="(" horiz-adv-x="503" d="M319 -389q-295 684 21 1405q110 251 319 520l103 -61q-142 -221 -204 -379q-109 -278 -150 -523q-67 -380 -12 -689q18 -105 48 -212z" />
<glyph unicode=")" horiz-adv-x="503" d="M-57 -328q337 510 386 1149q26 334 -71 654l127 61q348 -821 -153 -1657q-78 -131 -187 -268z" />
<glyph unicode="*" horiz-adv-x="880" d="M225 1055l60 143l272 -61l53 297h164l-53 -297l297 61l6 -143l-274 -51l96 -267l-146 -71l-96 266l-190 -266l-121 71l190 267z" />
<glyph unicode="+" horiz-adv-x="880" d="M156 543l26 143h297l60 338h163l-59 -338h297l-27 -143h-297l-59 -338h-164l60 338h-297z" />
<glyph unicode="," horiz-adv-x="348" d="M39 -236l80 451h194l-141 -451h-133z" />
<glyph unicode="-" horiz-adv-x="737" d="M156 543l26 143h615l-27 -143h-614z" />
<glyph unicode="." horiz-adv-x="348" d="M80 -10l39 225h184l-39 -225h-184z" />
<glyph unicode="/" horiz-adv-x="798" d="M0 0l866 1434h185l-867 -1434h-184z" />
<glyph unicode="0" horiz-adv-x="1044" d="M227 717q75 412 217 583q128 154 334 154t280 -154q83 -173 9 -583q-102 -593 -369 -703q-84 -34 -180 -34q-206 0 -279 153q-83 174 -12 584zM379 414q0 -119 21 -188q39 -124 139 -124q159 0 269 312q42 118 75 303q60 333 11 491q-38 123 -138 123q-160 0 -270 -311 q-42 -119 -74 -303q-33 -184 -33 -303z" />
<glyph unicode="1" horiz-adv-x="573" d="M246 0l227 1290h-225l16 103q126 41 316 41h102l-252 -1434h-184z" />
<glyph unicode="2" horiz-adv-x="798" d="M20 0l29 164q125 127 221.5 225t169 175t123.5 137.5t86 113.5q64 98 88.5 234.5t-22.5 204t-156 67.5h-287l17 92q126 41 321 41t271.5 -99.5t36.5 -330.5q-18 -100 -64.5 -186t-128.5 -184.5t-202 -220.5t-283 -290h522l-25 -143h-717z" />
<glyph unicode="3" horiz-adv-x="849" d="M33 20l16 93h266q154 0 232 64.5t105.5 215t-28 217t-208.5 66.5h-144l25 143h123q139 0 214 62.5t97.5 189.5t-26 188.5t-156.5 61.5h-266l16 92q126 41 315 41q369 0 301 -379q-20 -117 -79.5 -191.5t-159.5 -121.5l-2 -8q111 -30 152 -138q32 -88 12 -212 t-58.5 -200.5t-98.5 -126.5q-116 -97 -347 -97q-188 0 -301 40z" />
<glyph unicode="4" horiz-adv-x="962" d="M125 369l29 163l671 902h205l-162 -922h123l-26 -143h-123l-64 -369h-184l63 369h-532zM326 512h358l109 625h-9z" />
<glyph unicode="5" d="M94 20l17 93h266q154 0 232.5 67.5t107.5 229.5t-26.5 229.5t-209.5 67.5h-235l129 727h665l-24 -134h-481l-80 -460h92q232 0 312 -100q84 -104 42 -330q-40 -229 -159 -331q-115 -99 -347 -99q-189 0 -301 40z" />
<glyph unicode="6" horiz-adv-x="931" d="M174 410l80 450q83 462 328 562q80 32 174 32q197 0 301 -41l-17 -92h-266q-256 0 -344 -502q126 41 228 41t159 -24.5t89 -77.5q65 -108 25 -343.5t-150.5 -335t-303.5 -99.5t-268.5 99t-34.5 331zM358 410q-45 -237 64 -292q33 -16 76 -16q188 0 250 308 q33 184 -17.5 255.5t-181.5 71.5h-133z" />
<glyph unicode="7" horiz-adv-x="839" d="M225 0q193 584 596 1290h-553l25 144h737l-29 -164q-388 -663 -591 -1270h-185z" />
<glyph unicode="8" horiz-adv-x="983" d="M145 369q21 132 121 241q79 87 193 133v9q-132 53 -157 214q-9 58 3 130q62 358 443 358q193 0 269.5 -90t45.5 -268q-22 -132 -111 -230q-73 -81 -166 -114v-9q152 -74 180 -241q11 -60 -1 -133q-35 -201 -149 -295t-330 -94t-295.5 94t-45.5 295zM327.5 357.5 q-22.5 -127.5 24.5 -191.5t156 -64q226 0 272 267q28 159 -90 247q-37 27 -82 50q-109 -47 -183.5 -114t-97 -194.5zM490 1100q-37 -200 147 -271q204 70 242 267q20 117 -24 176t-130 59t-150.5 -59.5t-84.5 -171.5z" />
<glyph unicode="9" horiz-adv-x="931" d="M125 20l16 93h267q255 0 344 501q-120 -41 -225 -41t-161.5 25t-89.5 78q-68 112 -26.5 344.5t153 333t304.5 100.5t268.5 -99.5t34.5 -330.5l-80 -451q-82 -461 -328 -561q-80 -32 -174 -32q-190 0 -303 40zM434 1016q-31 -176 18.5 -248t180.5 -72h133l59 328 q51 307 -141 307q-84 0 -151.5 -69.5t-98.5 -245.5z" />
<glyph unicode=":" horiz-adv-x="348" d="M80 -10l39 225h184l-39 -225h-184zM221 799l41 225h184l-40 -225h-185z" />
<glyph unicode=";" horiz-adv-x="337" d="M39 -236l80 451h194l-141 -451h-133zM221 799l41 225h184l-40 -225h-185z" />
<glyph unicode="&#x3c;" horiz-adv-x="819" d="M158 430l30 174l727 410l-34 -195l-523 -295l-4 -14l420 -295l-35 -195z" />
<glyph unicode="=" horiz-adv-x="880" d="M123 358l29 154h757l-28 -154h-758zM186 717l27 153h758l-27 -153h-758z" />
<glyph unicode="&#x3e;" horiz-adv-x="819" d="M84 20l35 195l522 295l4 14l-420 295l35 195l584 -410l-31 -174z" />
<glyph unicode="?" horiz-adv-x="757" d="M203 -10l39 225h184l-39 -225h-184zM252 1321l16 92q126 41 314 41t262 -94t39 -295q-24 -147 -129 -266q-45 -51 -93.5 -95.5t-92.5 -92.5q-103 -112 -124 -232h-163q35 199 214 370q110 105 150.5 174.5t52.5 141.5q45 256 -180 256h-266z" />
<glyph unicode="@" horiz-adv-x="1699" d="M213 635q74 414 301 616.5t582 202.5q366 0 530 -187q160 -182 103 -519q-29 -158 -75 -265.5t-123 -174.5q-144 -124 -466 -124l2 62h-10q-99 -82 -230 -82q-132 0 -197 99q-74 113 -34 331q49 284 171 402q115 110 349 110q145 0 258 -41l-131 -748q114 0 181 85 q79 102 120 346q49 287 -71.5 435t-399.5 148q-271 0 -434 -157q-179 -171 -242 -539q-65 -372 63 -531q123 -155 451 -155h267l-17 -92q-126 -41 -313 -41q-777 0 -635 819zM780 594q-30 -157 10 -238q35 -69 119 -69q87 0 152 41l115 655h-82q-129 0 -199 -79 q-74 -83 -115 -310z" />
<glyph unicode="A" horiz-adv-x="1044" d="M41 0l600 1434h266l97 -1434h-185l-28 369h-410l-156 -369h-184zM438 512h348l-45 717h-8z" />
<glyph unicode="B" horiz-adv-x="1024" d="M145 20l246 1393q146 41 348.5 41t282.5 -93q57 -66 57 -182q0 -48 -10 -104q-37 -213 -217 -303l-2 -8q171 -51 171 -260q0 -53 -11 -115q-35 -214 -162 -312q-125 -97 -381 -97q-187 0 -322 40zM346 113h143q154 0 232 65q77 64 105 218q9 52 10 94q0 82 -36 128 q-54 68 -208 68h-143zM471 819h123q246 0 290 251q7 38 7 70q0 181 -209 181h-123z" />
<glyph unicode="C" horiz-adv-x="890" d="M195 397q0 136 32 320q75 414 219 583q129 154 342 154q195 0 299 -41l-16 -92h-266q-137 0 -227 -122q-106 -146 -166 -482q-29 -168 -29 -288q0 -234 109 -289q51 -27 120 -27h267l-17 -93q-118 -40 -322 -40q-218 0 -296 153q-49 95 -49 264z" />
<glyph unicode="D" horiz-adv-x="1064" d="M145 20l246 1393q146 41 302.5 41t242.5 -35t132 -119t52 -226q1 -19 1 -40q0 -132 -33 -317q-38 -215 -94 -357.5t-132 -226.5q-138 -153 -395 -153q-187 0 -322 40zM346 113h143q153 0 245 121q111 147 169 483q31 171 31 293q0 229 -110 284q-52 27 -122 27h-143z" />
<glyph unicode="E" horiz-adv-x="921" d="M143 0l252 1434h697l-25 -144h-512l-84 -471h451l-25 -143h-451l-94 -533h512l-24 -143h-697z" />
<glyph unicode="F" horiz-adv-x="880" d="M143 0l252 1434h697l-25 -144h-512l-90 -502h430l-25 -143h-430l-112 -645h-185z" />
<glyph unicode="G" horiz-adv-x="1024" d="M196 400q0 135 31 317q75 414 223 583q133 154 359 154q195 0 299 -41l-16 -92h-267q-152 0 -245 -122q-108 -142 -168 -482q-28 -165 -28 -283q0 -128 33 -200q32 -68 92 -94.5t144 -26.5h82l119 665h184l-135 -758q-117 -40 -276.5 -40t-245.5 34.5t-133 118.5 q-52 94 -52 267z" />
<glyph unicode="H" horiz-adv-x="1085" d="M143 0l252 1434h185l-113 -635h430l113 635h184l-252 -1434h-184l114 655h-430l-114 -655h-185z" />
<glyph unicode="I" horiz-adv-x="471" d="M143 0l252 1434h185l-252 -1434h-185z" />
<glyph unicode="J" horiz-adv-x="716" d="M2 20l16 93h185q114 0 180 77q72 83 113 302l166 942h184l-166 -942q-53 -287 -169 -402q-111 -110 -331 -110q-85 0 -178 40z" />
<glyph unicode="K" horiz-adv-x="1003" d="M143 0l252 1434h185l-123 -697l522 697h215l-545 -707l334 -727h-215l-315 717l-125 -717h-185z" />
<glyph unicode="L" horiz-adv-x="860" d="M143 0l252 1434h185l-228 -1291h512l-24 -143h-697z" />
<glyph unicode="M" horiz-adv-x="1515" d="M113 0l333 1434h226l159 -983h9l508 983h225l-170 -1434h-184l124 1065h-10l-452 -881h-185l-141 881h-10l-248 -1065h-184z" />
<glyph unicode="N" horiz-adv-x="1105" d="M143 0l252 1434h205l242 -1014h10l178 1014h184l-251 -1434h-205l-242 1014h-10l-178 -1014h-185z" />
<glyph unicode="O" horiz-adv-x="1085" d="M195 395q0 137 32 322q75 412 221 583q132 154 351 154q222 0 297 -154q46 -94 47 -255q0 -139 -35 -328q-102 -593 -378 -703q-87 -34 -191 -34q-222 0 -297 153q-47 96 -47 262zM379 410q1 -111 25 -184q39 -124 155 -124q255 0 365 615q33 181 33 309q0 111 -25 182 q-41 123 -156 123q-257 0 -364 -614q-32 -178 -33 -307z" />
<glyph unicode="P" horiz-adv-x="1003" d="M143 0l248 1413q146 41 302.5 41t237.5 -25.5t124 -84.5q51 -71 51 -209q0 -84 -19 -193q-53 -293 -167 -410q-107 -112 -316 -112q-104 0 -201 20l-75 -440h-185zM426 563h143q143 0 216 78q79 85 118 301q15 92 15 159q0 93 -28 142q-44 78 -188 78h-143z" />
<glyph unicode="Q" horiz-adv-x="1105" d="M195 395q0 137 32 322q75 412 221 583q132 154 351 154q222 0 297 -154q46 -94 46 -255q0 -139 -34 -328q-76 -439 -252 -615q136 0 240 -41l-15 -81h-542q-222 0 -297 153q-47 96 -47 262zM380 410q0 -111 24 -184q39 -124 155 -124q255 0 365 615q33 181 33 309 q0 111 -25 182q-41 123 -156 123q-257 0 -364 -614q-32 -178 -32 -307z" />
<glyph unicode="R" horiz-adv-x="1034" d="M143 0l248 1413q146 41 302.5 41t237.5 -24.5t125 -83t52 -152.5q1 -16 1 -33v-17v-9q0 -71 -15 -155q-22 -120 -49 -196.5t-62 -131.5q-66 -103 -176 -140l156 -512h-205l-144 471h-204l-82 -471h-185zM434 614h144q141 0 216 75q76 76 111 274q15 87 15 151 q0 87 -28 131q-48 76 -190 76h-143z" />
<glyph unicode="S" d="M74 20l16 93h266q176 0 258 62.5t105 193.5q5 29 5 53q0 53 -24 88q-34 51 -92.5 87t-128 68.5t-125.5 82.5q-57 50 -86 128q-16 44 -16 103q0 48 10 106q33 186 143.5 277.5t311.5 91.5q195 0 299 -41l-17 -92h-266q-246 0 -287 -236q-5 -31 -5 -57q0 -55 22 -92 q33 -55 91 -93t128 -70t126 -80q56 -47 87 -123q19 -45 19 -105q0 -39 -8 -83q-20 -112 -57.5 -185.5t-100.5 -121.5q-126 -95 -373 -95q-189 0 -301 40z" />
<glyph unicode="T" horiz-adv-x="880" d="M248 1290l24 144h840l-25 -144h-327l-228 -1290h-184l227 1290h-327z" />
<glyph unicode="U" horiz-adv-x="1064" d="M188 289q0 88 21 203l166 942h184l-166 -942q-18 -103 -18 -176v-8q0 -82 21 -127q39 -79 153 -79t180 79q74 88 115 311l166 942h184l-166 -942q-54 -289 -168 -402q-113 -110 -332 -110q-220 0 -294 110q-46 70 -46 199z" />
<glyph unicode="V" horiz-adv-x="1003" d="M293 1434h184l53 -1239h9l491 1239h184l-579 -1434h-266z" />
<glyph unicode="W" horiz-adv-x="1474" d="M276 0l17 1434h184l-10 -1106h10l373 839h184l78 -839h10l379 1106h185l-488 -1434h-225l-80 860h-8l-383 -860h-226z" />
<glyph unicode="X" horiz-adv-x="942" d="M31 0l436 737l-154 697h185l125 -574l325 574h185l-400 -697l178 -737h-184l-149 614l-363 -614h-184z" />
<glyph unicode="Y" horiz-adv-x="921" d="M272 1434h185l127 -727l385 727h184l-522 -983l-78 -451h-184l77 451z" />
<glyph unicode="Z" horiz-adv-x="829" d="M41 0l22 133l738 1157h-522l24 144h737l-24 -134l-735 -1157h522l-25 -143h-737z" />
<glyph unicode="[" horiz-adv-x="532" d="M78 -369l332 1885h389l-23 -123h-205l-288 -1639h204l-20 -123h-389z" />
<glyph unicode="\" horiz-adv-x="798" d="M252 1434h184l363 -1434h-185z" />
<glyph unicode="]" horiz-adv-x="532" d="M-63 -369l20 123h203l289 1639h-205l22 123h389l-331 -1885h-387z" />
<glyph unicode="^" d="M223 922l398 512h174l217 -512l-148 -82l-184 409h-10l-328 -409z" />
<glyph unicode="_" horiz-adv-x="614" d="M-25 -143l25 143h614l-26 -143h-613z" />
<glyph unicode="`" horiz-adv-x="348" d="M293 1434h194l15 -328h-123z" />
<glyph unicode="a" horiz-adv-x="952" d="M159 287q0 97 23 225q53 301 170 420q110 112 322 112q177 0 317 -61l-172 -983h-153v61h-11q-98 -81 -229 -81q-173 0 -230 112q-37 73 -37 195zM345 312q0 -156 77 -192q37 -18 81 -18q89 0 156 41l138 779h-144q-106 0 -171 -83q-78 -100 -115 -327q-22 -117 -22 -200 z" />
<glyph unicode="b" horiz-adv-x="962" d="M150 41l245 1393h185l-78 -441q113 51 203 51t149 -25.5t91 -86.5q38 -72 38 -198q0 -96 -22 -222q-57 -303 -171 -420q-111 -112 -323 -112q-177 0 -317 61zM344 102h143q108 0 173 81q74 94 116 329q20 120 20 202t-20 125q-36 83 -143 83q-83 0 -152 -41z" />
<glyph unicode="c" horiz-adv-x="768" d="M160 295q0 94 22 217q52 297 166 420q106 112 305 112q132 0 240 -40l-14 -82h-205q-121 0 -190 -83q-79 -96 -117 -327q-21 -115 -21 -195q0 -86 24 -134q41 -81 179 -81h205l-15 -82q-117 -40 -236.5 -40t-190 25.5t-108.5 86.5q-44 72 -44 203z" />
<glyph unicode="d" horiz-adv-x="962" d="M159 287q0 97 23 225q75 428 282 506q68 26 161 26t184 -51l78 441h184l-252 -1434h-153v61h-11q-98 -81 -229 -81q-173 0 -230 112q-37 73 -37 195zM345 312q0 -156 77 -192q37 -18 81 -18q89 0 156 41l129 738q-51 41 -117.5 41t-109.5 -18.5t-79 -64.5 q-78 -100 -115 -327q-22 -117 -22 -200z" />
<glyph unicode="e" horiz-adv-x="880" d="M160 297q0 93 22 215q52 297 166 420q106 112 294.5 112t264.5 -87q56 -64 56 -161q0 -34 -7 -72q-27 -146 -122 -220t-287 -74h-195q-13 -67 -13 -120v-7q1 -85 33 -129q54 -72 208 -72h204l-14 -82q-118 -40 -242.5 -40t-202 25.5t-118.5 86.5q-47 71 -47 205zM373 553 h194q86 0 137.5 43t67.5 132q4 25 4 47q0 57 -30 99q-42 58 -111 58q-92 0 -153 -78q-71 -92 -109 -301z" />
<glyph unicode="f" horiz-adv-x="655" d="M-231 -389l14 82h184q141 0 180 225l168 952h-122l24 134h123l14 81q49 287 232 335q55 14 97 14t72.5 -3.5t61.5 -9.5q68 -13 103 -28l-15 -82h-184q-94 0 -149 -112q-21 -44 -33 -114l-15 -81h287l-16 -93q-126 -41 -254 -41h-41l-168 -952q-47 -285 -230 -334 q-55 -14 -97 -14t-72.5 3t-61.5 9q-65 13 -102 29z" />
<glyph unicode="g" horiz-adv-x="952" d="M94 -389l15 82h204q143 0 215 73q80 81 111 265q-109 -51 -201 -51t-151.5 25.5t-90.5 86.5q-37 73 -37 195q0 97 23 225q53 301 170 420q110 112 322 112q177 0 317 -61l-157 -901q-54 -287 -170 -402q-112 -110 -332 -110q-134 0 -238 41zM345 312q0 -156 77 -192 q37 -18 81 -18q89 0 156 41l138 779h-144q-106 0 -171 -83q-78 -100 -115 -327q-22 -117 -22 -200z" />
<glyph unicode="h" horiz-adv-x="983" d="M143 0l252 1434h185l-78 -441q113 51 206 51t145 -13t86 -48q49 -50 49 -151q0 -43 -9 -95l-129 -737h-184l129 737q4 26 4 49q0 105 -89 128q-34 8 -75 8q-85 0 -154 -41l-153 -881h-185z" />
<glyph unicode="i" horiz-adv-x="471" d="M143 0l181 1024h184l-180 -1024h-185zM348 1167l39 226h184l-39 -226h-184z" />
<glyph unicode="j" horiz-adv-x="491" d="M-190 -389l14 82h143q141 0 180 225l197 1106h184l-196 -1106q-47 -285 -230 -334q-55 -14 -109 -14q-101 0 -183 41zM369 1167l39 226h184l-39 -226h-184z" />
<glyph unicode="k" horiz-adv-x="890" d="M143 0l252 1434h185l-156 -881l381 471h205l-404 -481l264 -543h-204l-246 532l-92 -532h-185z" />
<glyph unicode="l" horiz-adv-x="471" d="M143 0l252 1434h185l-252 -1434h-185z" />
<glyph unicode="m" horiz-adv-x="1413" d="M133 0l180 1024h154l-2 -61h10q98 81 219 81q160 0 215 -90q77 61 206 84q34 6 78 6t94 -13t83 -48q48 -51 48 -150q0 -43 -9 -96l-129 -737h-184l129 737q4 28 4 51q0 102 -77 126q-28 8 -66 8q-87 0 -154 -41q4 -23 4 -60t-8 -84l-129 -737h-185l129 737q4 28 4 51 q0 134 -135 134q-72 0 -141 -41l-154 -881h-184z" />
<glyph unicode="n" horiz-adv-x="972" d="M133 0l180 1024h154l-2 -61h10q98 81 230 81q160 0 221 -61q52 -52 52 -154q0 -42 -9 -92l-129 -737h-185l129 737q4 26 4 49q0 105 -88 128q-34 8 -75 8q-85 0 -154 -41l-154 -881h-184z" />
<glyph unicode="o" horiz-adv-x="942" d="M161 302q0 91 21 210q77 426 304 506q75 26 167 26q195 0 263 -116q45 -77 45 -209q0 -90 -21 -207q-77 -426 -305 -506q-76 -26 -168 -26q-194 0 -262 116q-44 73 -44 206zM344 305q0 -151 70 -193q32 -20 71 -20q192 0 271 420q18 111 18 193q0 227 -139 227 q-89 0 -151 -87q-81 -112 -117 -333q-22 -121 -23 -207z" />
<glyph unicode="p" horiz-adv-x="952" d="M59 -410l254 1434h154l-2 -61h10q98 81 230 81q171 0 230 -112q37 -72 37 -197q0 -96 -22 -223q-56 -300 -162 -420q-100 -112 -280 -112q-91 0 -186 51l-78 -441h-185zM342 143q51 -41 117.5 -41t109.5 17.5t80 63.5q72 90 117 329q20 123 20 202t-20 125 q-37 83 -143 83q-83 0 -152 -41z" />
<glyph unicode="q" horiz-adv-x="952" d="M159 287q0 97 23 225q53 301 170 420q110 112 322 112q177 0 317 -61l-246 -1393h-184l78 441q-109 -51 -201 -51t-151.5 25.5t-90.5 86.5q-37 73 -37 195zM345 312q0 -156 77 -192q37 -18 81 -18q89 0 156 41l138 779h-144q-106 0 -171 -83q-78 -100 -115 -327 q-22 -117 -22 -200z" />
<glyph unicode="r" horiz-adv-x="686" d="M133 0l180 1024h156l-4 -82h10q108 82 268 82h103l-29 -154h-205q-87 0 -149 -41l-146 -829h-184z" />
<glyph unicode="s" horiz-adv-x="808" d="M84 20l14 82h205q139 0 209 36t86 128q3 16 3 33q0 38 -21 64q-28 36 -76.5 63t-107 50.5t-105.5 59.5q-87 68 -87 182q0 28 5 58q27 156 128 212t286 56q132 0 239 -40l-14 -82h-205q-228 0 -249 -136q-3 -19 -3 -36q1 -43 21 -69q28 -36 76.5 -62.5t106.5 -50 t105 -60.5q88 -68 88 -180q0 -29 -6 -62q-27 -161 -137 -227q-98 -59 -321 -59q-128 0 -240 40z" />
<glyph unicode="t" horiz-adv-x="706" d="M193 870l24 134h123l43 245h184l-43 -245h287l-16 -93q-126 -41 -254 -41h-41l-94 -542q-8 -48 -9 -85q0 -105 65 -131q23 -10 46 -10h184l-14 -82q-100 -40 -196.5 -40t-146.5 14t-82 52q-44 51 -44 158q0 55 12 124l94 542h-122z" />
<glyph unicode="u" horiz-adv-x="972" d="M173 195q0 42 9 92l131 737h185l-131 -737q-5 -28 -6 -52q0 -60 35 -95q39 -38 132 -38q83 0 152 41l156 881h184l-180 -1024h-154v61h-10q-98 -81 -230 -81q-160 0 -221 61q-52 52 -52 154z" />
<glyph unicode="v" horiz-adv-x="880" d="M211 1024h174l80 -850h8l383 850h174l-457 -1024h-266z" />
<glyph unicode="w" horiz-adv-x="1249" d="M211 1024h174l4 -778h10l287 573h164l86 -573h10l279 778h174l-365 -1024h-225l-84 553h-8l-277 -553h-225z" />
<glyph unicode="x" horiz-adv-x="819" d="M31 0l346 522l-158 502h184l119 -379l254 379h185l-338 -502l165 -522h-184l-125 399l-264 -399h-184z" />
<glyph unicode="y" horiz-adv-x="972" d="M115 -389l14 82h205q143 0 215 73q79 80 110 265q-111 -52 -224 -52q-59 0 -119 14q-143 33 -143 202q0 42 9 92l131 737h185l-131 -737q-5 -28 -5 -52q0 -60 34 -95q39 -38 132 -38q83 0 152 41l156 881h184l-166 -942q-53 -287 -169 -402q-111 -110 -333 -110 q-133 0 -237 41z" />
<glyph unicode="z" horiz-adv-x="757" d="M41 0l20 123l596 768h-440l25 133h655l-23 -123l-593 -768h448l-22 -133h-666z" />
<glyph unicode="{" horiz-adv-x="593" d="M131 512l21 123q88 26 124 68q63 72 86 198l48 266q35 205 144 282q95 67 306 67l-22 -123q-101 0 -156 -43q-66 -52 -88 -183l-39 -225q-31 -164 -86 -238q-46 -63 -143 -126v-9q78 -68 94 -118q30 -92 4 -246l-39 -225q-32 -187 81 -216q36 -10 83 -10l-21 -123 q-210 0 -282 67q-81 75 -45 282l47 266q32 176 -54 236q-26 18 -63 30z" />
<glyph unicode="|" horiz-adv-x="471" d="M70 -410l325 1844h185l-326 -1844h-184z" />
<glyph unicode="}" horiz-adv-x="593" d="M-63 -369l20 123q151 0 209 112q22 44 35 114l39 225q35 210 150 306q36 30 79 58v9q-78 69 -95 117q-33 98 -3 247l39 225q32 186 -84 217q-37 9 -82 9l22 123q211 0 283 -67q80 -74 45 -282l-47 -266q-32 -177 53 -235q27 -19 64 -31l-21 -123q-88 -26 -125 -68 q-63 -73 -86 -198l-47 -266q-34 -205 -145 -282q-96 -67 -303 -67z" />
<glyph unicode="~" horiz-adv-x="921" d="M190 737h144q-26 -153 76 -153q35 0 65.5 25.5t67.5 56t85 56.5t117 26q134 0 177 -89q39 -84 10 -249h-144q26 153 -75 153q-35 0 -66 -25.5t-67 -55.5q-99 -83 -203 -83q-139 0 -177 88t-10 250z" />
<glyph unicode="&#xa2;" horiz-adv-x="768" d="M182 512q49 280 151 402q96 116 269 128l23 125h123l-23 -127q85 -11 168 -36l-14 -82h-174l-146 -820h195l-15 -82q-99 -30 -200 -38l-19 -105h-123l19 107q-172 16 -226 132q-56 117 -8 396zM351 238q17 -89 89 -119l140 788q-154 -55 -204 -346q-42 -236 -25 -323z " />
<glyph unicode="&#xa3;" horiz-adv-x="849" d="M92 0l17 102q53 31 93 102.5t68 225.5l39 225h-123l25 144h123l41 225q49 267 159 353q58 46 138 61.5t158 15.5q122 0 206 -41l-16 -92h-184q-120 0 -176 -53q-72 -67 -101 -244l-41 -225h307l-24 -144h-307l-31 -176q-29 -154 -69 -225.5t-91 -101.5l-2 -9h533 l-25 -143h-717z" />
<glyph unicode="&#xa5;" horiz-adv-x="921" d="M197 420l24 143h205l-20 123h-162l24 143h111l-107 605h185l127 -727l385 727h184l-322 -605h113l-24 -143h-164l-66 -123h207l-25 -143h-245l-74 -420h-184l73 420h-245z" />
<glyph unicode="&#xa8;" horiz-adv-x="593" d="M250 1188l39 225h184l-39 -225h-184zM578 1188l38 225h185l-39 -225h-184z" />
<glyph unicode="&#xa9;" horiz-adv-x="1658" d="M217 717q62 352 298 555t571 203q169 0 297 -52.5t207 -150.5q162 -201 102 -555q-61 -349 -298 -555q-231 -203 -573 -203t-501 203q-164 208 -103 555zM401 717q-53 -302 72 -471q121 -164 371 -164q249 0 427 164q185 170 236 471q53 302 -71 471q-119 164 -369 164 q-251 0 -429 -164q-184 -169 -237 -471zM629.5 718.5q49.5 275.5 152.5 369.5q54 49 121.5 64t144.5 15q130 0 234 -41l-14 -82h-195q-118 0 -176 -56q-72 -70 -106 -271q-34 -204 11 -271q38 -57 156 -57h216l-15 -82q-126 -41 -237 -41t-173.5 15.5t-97.5 63.5 q-71 98 -21.5 373.5z" />
<glyph unicode="&#xab;" horiz-adv-x="890" d="M131 512l391 420l119 -82l-305 -334l-2 -8l186 -334l-147 -82zM469 512l391 420l119 -82l-305 -334l-2 -8l186 -334l-147 -82z" />
<glyph unicode="&#xad;" horiz-adv-x="737" d="M156 543l26 143h615l-27 -143h-614z" />
<glyph unicode="&#xae;" horiz-adv-x="1658" d="M217 717q62 352 298 555t571 203q169 0 297 -52.5t207 -150.5q162 -201 102 -555q-61 -349 -298 -555q-231 -203 -573 -203t-501 203q-164 208 -103 555zM401 717q-53 -302 72 -471q121 -164 371 -164q249 0 427 164q185 170 236 471q53 302 -71 471q-119 164 -369 164 q-251 0 -429 -164q-184 -169 -237 -471zM592 287l147 839q146 41 253.5 41t167 -13t94.5 -46q74 -69 46 -227q-26 -156 -132 -217q-29 -17 -54 -29l103 -348h-175l-88 307h-143l-55 -307h-164zM831 717h113q112 0 165 86q19 31 27.5 77t0 77.5t-28.5 50.5q-38 36 -107 36 h-112z" />
<glyph unicode="&#xb4;" horiz-adv-x="348" d="M242 1147l118 266h195l-190 -266h-123z" />
<glyph unicode="&#xb8;" horiz-adv-x="409" d="M-12 -307l10 61h131q61 0 72 51q6 51 -54 52h-112l31 174h102l-14 -82h30q86 0 123 -41t27 -103q-10 -61 -62.5 -102t-138.5 -41q-90 0 -145 31z" />
<glyph unicode="&#xbb;" horiz-adv-x="890" d="M90 174l305 334l2 8l-186 334l147 82l244 -420l-393 -420zM428 174l305 334l2 8l-186 334l147 82l244 -420l-393 -420z" />
<glyph unicode="&#x2c6;" horiz-adv-x="583" d="M238 1126l200 267h195l106 -267h-123l-100 152l-156 -152h-122z" />
<glyph unicode="&#x2dc;" horiz-adv-x="573" d="M283 1372h102q-10 -47 1 -69.5t31.5 -22.5t39 19.5t41 42t50 42t66.5 19.5q86 0 117 -49t10 -166h-102q14 92 -35 92q-18 0 -38 -20l-42 -42q-61 -61 -116 -61q-86 0 -117 49t-8 166z" />
<glyph unicode="&#x401;" horiz-adv-x="921" d="M143 0l252 1434h697l-25 -144h-512l-84 -471h451l-25 -143h-451l-94 -533h512l-24 -143h-697zM502 1577l41 225h184l-41 -225h-184zM829 1577l41 225h185l-41 -225h-185z" />
<glyph unicode="&#x402;" horiz-adv-x="1136" d="M227 1290l25 144h737l-24 -144h-297l-74 -409q102 20 229 20q193 0 269.5 -95t40.5 -304l-31 -174q-33 -186 -121 -267t-227 -81q-85 0 -138 40l15 82h102q61 0 111.5 51.5t73.5 174.5l30 174q23 131 -30.5 193.5t-200.5 62.5h-144l-133 -758h-184l227 1290h-256z" />
<glyph unicode="&#x403;" horiz-adv-x="839" d="M143 0l252 1434h656l-25 -144h-471l-227 -1290h-185zM659 1536l119 266h195l-191 -266h-123z" />
<glyph unicode="&#x404;" horiz-adv-x="890" d="M227 717q75 414 219 583q129 154 342 154q195 0 299 -41l-16 -92h-266q-268 0 -377 -512h430l-24 -143h-431q-69 -447 89 -528q51 -25 120 -25h267l-17 -93q-118 -40 -270 -40t-228.5 34.5t-119.5 118.5q-88 172 -17 584z" />
<glyph unicode="&#x405;" d="M74 20l16 93h266q176 0 258 62.5t105 193.5q16 90 -18.5 141t-93 87t-128 68.5t-126 82t-85.5 128t-6 209.5q33 186 143.5 277.5t311.5 91.5q195 0 299 -41l-17 -92h-266q-246 0 -287 -236q-16 -94 17 -149t91 -93t128 -70t126 -80t87 -123.5t10.5 -188t-57.5 -185.5 t-100 -121q-126 -95 -373 -95q-189 0 -301 40z" />
<glyph unicode="&#x406;" horiz-adv-x="471" d="M143 0l252 1434h185l-252 -1434h-185z" />
<glyph unicode="&#x407;" horiz-adv-x="471" d="M143 0l252 1434h185l-252 -1434h-185zM256 1577l41 225h184l-41 -225h-184zM584 1577l41 225h184l-41 -225h-184z" />
<glyph unicode="&#x408;" horiz-adv-x="716" d="M2 20l16 93h185q114 0 180 77q72 83 113 302l166 942h184l-166 -942q-53 -287 -169 -402q-111 -110 -331 -110q-85 0 -178 40z" />
<glyph unicode="&#x409;" horiz-adv-x="1617" d="M0 0l14 92q186 0 267 338l227 1004h686l-102 -584q103 20 206 20q199 0 277 -102t35 -348q-47 -242 -164 -339q-121 -101 -365 -101q-186 0 -321 40l225 1270h-323l-197 -860q-81 -344 -247 -426q-50 -24 -100 -24q-68 0 -118 20zM961 113h143q139 0 215 68.5t106 238.5 q29 170 -22 238.5t-191 68.5h-143z" />
<glyph unicode="&#x40a;" horiz-adv-x="1617" d="M143 0l252 1434h185l-107 -605h430l107 605h184l-111 -625q102 20 209 20q201 0 278 -99t36 -331q-40 -224 -160 -321q-120 -98 -340 -98t-344 38l-4 -18l121 686h-430l-121 -686h-185zM961 113h143q139 0 214 66.5t103 219.5q29 154 -23 220.5t-192 66.5h-143z" />
<glyph unicode="&#x40b;" horiz-adv-x="1146" d="M227 1290l25 144h737l-24 -144h-297l-74 -409q102 20 229 20q193 0 269.5 -95t40.5 -304l-89 -502h-184l88 502q23 131 -30.5 193.5t-200.5 62.5h-144l-133 -758h-184l227 1290h-256z" />
<glyph unicode="&#x40c;" horiz-adv-x="1013" d="M143 0l252 1434h185l-109 -615h72q129 0 207 185l88 204q104 246 278 246q46 0 75 -8t44 -12l-16 -93q-78 0 -119 -35.5t-68 -97.5l-88 -204q-63 -136 -98 -173q-57 -59 -131 -79v-9q78 -21 115 -71q44 -62 44 -180l5 -267q2 -53 31.5 -93t107.5 -40l-14 -92 q-53 -20 -136 -20t-132.5 61t-51.5 184l-4 267q-2 109 -47 146.5t-115 37.5h-72l-118 -676h-185zM717 1516l119 266h194l-190 -266h-123z" />
<glyph unicode="&#x40e;" horiz-adv-x="942" d="M166 20l16 93h144q134 0 214 155q29 58 58 142q-228 0 -258 245l-88 779h184l88 -779q12 -113 123 -112l322 891h184l-399 -1106q-66 -186 -158 -267t-231 -81q-87 0 -199 40zM481 1690l97 82q75 -93 188 -93q110 0 221 93l68 -82q-51 -70 -132 -112t-182 -42 q-100 0 -166.5 42t-93.5 112z" />
<glyph unicode="&#x40f;" horiz-adv-x="1085" d="M143 0l252 1434h185l-228 -1291h430l228 1291h184l-252 -1434h-307l-86 -307h-123l25 307h-308z" />
<glyph unicode="&#x410;" horiz-adv-x="1044" d="M41 0l600 1434h266l97 -1434h-185l-28 369h-410l-156 -369h-184zM438 512h348l-45 717h-8z" />
<glyph unicode="&#x411;" horiz-adv-x="1003" d="M145 20l250 1414h717l-25 -144h-532l-76 -420h144q245 0 330 -102q84 -101 42 -348q-47 -243 -163 -339q-121 -101 -365 -101q-187 0 -322 40zM346 113h143q139 0 215 68.5t107 238.5q29 170 -22.5 238.5t-190.5 68.5h-143z" />
<glyph unicode="&#x412;" horiz-adv-x="1024" d="M145 20l246 1393q146 41 348.5 41t282.5 -93t47 -286q-37 -213 -217 -303l-2 -8q214 -64 160 -375q-35 -214 -162 -312q-125 -97 -381 -97q-187 0 -322 40zM346 113h143q154 0 232 64.5t105.5 219t-27 222t-207.5 67.5h-143zM471 819h123q246 0 290 251t-202 251h-123z " />
<glyph unicode="&#x413;" horiz-adv-x="839" d="M143 0l252 1434h656l-25 -144h-471l-227 -1290h-185z" />
<glyph unicode="&#x414;" horiz-adv-x="1116" d="M-33 -307l78 450h102q120 164 177 420l194 871h666l-228 -1291h134l-80 -450h-113q-25 123 -6 307h-696q-49 -184 -117 -307h-111zM332 143h440l203 1147h-303l-164 -727q-54 -245 -176 -420z" />
<glyph unicode="&#x415;" horiz-adv-x="921" d="M143 0l252 1434h697l-25 -144h-512l-84 -471h451l-25 -143h-451l-94 -533h512l-24 -143h-697z" />
<glyph unicode="&#x416;" horiz-adv-x="1515" d="M10 0l15 92q78 0 123 40t65 93l98 267q69 174 175 224q34 17 75 27v9q-99 30 -125 144q-10 44 -14 108l-14 204q-4 61 -34 97t-108 36l17 93q16 4 34 9q40 11 93 11q174 0 192 -246l14 -204q8 -106 48.5 -145.5t93.5 -39.5h51l109 615h184l-109 -615h51q129 0 207 185 l88 204q104 246 279 246q46 0 75 -8t44 -12l-17 -93q-78 0 -118.5 -35.5t-67.5 -97.5l-88 -204q-63 -136 -98 -173q-57 -58 -131 -79v-9q78 -21 115 -71q44 -62 44 -180l4 -267q2 -53 32 -93t108 -40l-15 -92q-53 -20 -136 -20t-132 61t-51 184l-4 267q-2 109 -47 146.5 t-115 37.5h-51l-119 -676h-184l118 676h-51q-70 0 -129 -38t-98 -146l-98 -267q-90 -246 -279 -245q-69 0 -119 20z" />
<glyph unicode="&#x417;" horiz-adv-x="870" d="M33 20l16 93h287q154 0 231.5 64.5t105.5 215t-27.5 217t-209.5 66.5h-143l24 143h123q139 0 214 62.5t98 189.5t-30.5 188.5t-193.5 61.5h-245l16 92q128 41 258.5 41t208.5 -23.5t121 -70.5q82 -89 49 -285q-23 -123 -81 -196.5t-159 -116.5l-2 -8q216 -68 162 -365 q-36 -215 -161 -312t-382 -97q-167 0 -280 40z" />
<glyph unicode="&#x418;" horiz-adv-x="1105" d="M143 0l252 1434h185l-189 -1065h10l598 1065h215l-251 -1434h-185l187 1065h-11l-606 -1065h-205z" />
<glyph unicode="&#x419;" horiz-adv-x="1105" d="M143 0l252 1434h185l-189 -1065h10l598 1065h215l-251 -1434h-185l187 1065h-11l-606 -1065h-205zM567 1710l97 82q74 -92 188 -92q111 0 221 92l68 -82q-51 -70 -132 -112t-182 -42q-100 0 -166.5 42t-93.5 112z" />
<glyph unicode="&#x41a;" horiz-adv-x="1013" d="M143 0l252 1434h185l-109 -615h72q129 0 207 185l88 204q104 246 278 246q46 0 75 -8t44 -12l-16 -93q-78 0 -119 -35.5t-68 -97.5l-88 -204q-63 -136 -98 -173q-57 -59 -131 -79v-9q78 -21 115 -71q44 -62 44 -180l5 -267q2 -53 31.5 -93t107.5 -40l-14 -92 q-53 -20 -136 -20t-132.5 61t-51.5 184l-4 267q-2 109 -47 146.5t-115 37.5h-72l-118 -676h-185z" />
<glyph unicode="&#x41b;" horiz-adv-x="1085" d="M0 0l14 92q186 0 267 338l227 1004h686l-252 -1434h-184l227 1290h-323l-197 -860q-81 -344 -247 -426q-50 -24 -100 -24q-68 0 -118 20z" />
<glyph unicode="&#x41c;" horiz-adv-x="1515" d="M113 0l333 1434h226l159 -983h9l508 983h225l-170 -1434h-184l124 1065h-10l-452 -881h-185l-141 881h-10l-248 -1065h-184z" />
<glyph unicode="&#x41d;" horiz-adv-x="1085" d="M143 0l252 1434h185l-113 -635h430l113 635h184l-252 -1434h-184l114 655h-430l-114 -655h-185z" />
<glyph unicode="&#x41e;" horiz-adv-x="1085" d="M227 717q75 412 221 583q132 154 351 154q222 0 297 -154q86 -175 12 -583q-102 -593 -378 -703q-87 -34 -191 -34q-222 0 -297 153q-85 175 -15 584zM404 226q39 -124 155 -124q255 0 365 615q61 338 8 491q-41 123 -156 123q-257 0 -364 -614q-60 -333 -8 -491z" />
<glyph unicode="&#x41f;" horiz-adv-x="1085" d="M143 0l252 1434h799l-252 -1434h-184l227 1290h-430l-227 -1290h-185z" />
<glyph unicode="&#x420;" horiz-adv-x="1003" d="M143 0l248 1413q146 41 302.5 41t237.5 -25.5t124 -84.5q82 -114 32 -402q-53 -293 -167 -410q-107 -112 -316 -112q-104 0 -201 20l-75 -440h-185zM426 563h143q143 0 216 78q79 85 118 301q35 217 -13 301q-44 78 -188 78h-143z" />
<glyph unicode="&#x421;" horiz-adv-x="890" d="M227 717q75 414 219 583q129 154 342 154q195 0 299 -41l-16 -92h-266q-137 0 -227 -122q-106 -146 -166 -482q-85 -493 80 -577q51 -27 120 -27h267l-17 -93q-118 -40 -322 -40q-218 0 -296 153q-88 172 -17 584z" />
<glyph unicode="&#x422;" horiz-adv-x="880" d="M248 1290l24 144h840l-25 -144h-327l-228 -1290h-184l227 1290h-327z" />
<glyph unicode="&#x423;" horiz-adv-x="952" d="M158 20l16 93h143q88 0 146 60q59 61 129 237q-241 0 -262 245l-78 779h184l78 -779q12 -113 127 -112l338 891h184l-418 -1106q-70 -184 -161 -266t-228 -82q-86 0 -198 40z" />
<glyph unicode="&#x424;" horiz-adv-x="1413" d="M186 717q50 280 228 442q172 156 434 172l24 144h185l-25 -144q256 -16 372 -172q121 -162 73 -442q-50 -282 -228 -443q-171 -154 -434 -172l-24 -143h-185l25 143q-255 16 -372 172q-121 162 -73 443zM371 717q-39 -223 46 -351q80 -122 238 -130l170 962 q-161 -8 -283 -130q-133 -131 -171 -351zM840 236q162 8 284 130q129 129 168 351t-45 351q-79 122 -237 130z" />
<glyph unicode="&#x425;" horiz-adv-x="942" d="M31 0l436 737l-154 697h185l125 -574l325 574h185l-400 -697l178 -737h-184l-149 614l-363 -614h-184z" />
<glyph unicode="&#x426;" horiz-adv-x="1105" d="M143 0l252 1434h185l-228 -1291h410l227 1291h185l-228 -1291h133l-80 -450h-112q-25 123 -6 307h-738z" />
<glyph unicode="&#x427;" horiz-adv-x="1034" d="M266 932l88 502h185l-88 -502q-23 -131 30.5 -193.5t200.5 -62.5h143l133 758h185l-252 -1434h-184l96 553q-108 -21 -230 -21q-193 0 -268.5 95.5t-38.5 304.5z" />
<glyph unicode="&#x428;" horiz-adv-x="1536" d="M143 0l252 1434h185l-228 -1291h348l228 1291h184l-227 -1291h348l227 1291h185l-252 -1434h-1250z" />
<glyph unicode="&#x429;" horiz-adv-x="1576" d="M143 0l252 1434h185l-228 -1291h348l228 1291h184l-227 -1291h348l227 1291h185l-228 -1291h133l-80 -450h-112q-25 123 -6 307h-1209z" />
<glyph unicode="&#x42a;" horiz-adv-x="1126" d="M268 20l226 1270h-226l25 144h409l-102 -584q103 20 207 20q199 0 276.5 -102t34.5 -348q-47 -243 -162 -339q-122 -101 -366 -101q-187 0 -322 40zM469 113h143q139 0 215 68.5t107 238.5q29 170 -22.5 238.5t-190.5 68.5h-143z" />
<glyph unicode="&#x42b;" horiz-adv-x="1413" d="M145 20l250 1414h185l-103 -584q103 20 207 20q193 0 268.5 -102t32.5 -348q-47 -242 -161 -339q-120 -101 -357 -101q-187 0 -322 40zM346 113h143q131 0 206 68.5t106 238.5q29 170 -21.5 238.5t-181.5 68.5h-143zM1085 0l252 1434h185l-252 -1434h-185z" />
<glyph unicode="&#x42c;" horiz-adv-x="1003" d="M145 20l250 1414h185l-103 -584q103 20 207 20q199 0 276.5 -102t34.5 -348q-47 -243 -163 -339q-121 -101 -365 -101q-187 0 -322 40zM346 113h143q139 0 215 68.5t107 238.5q29 170 -22.5 238.5t-190.5 68.5h-143z" />
<glyph unicode="&#x42d;" horiz-adv-x="890" d="M33 20l16 93h266q148 0 240 115q103 127 166 438h-430l24 143h430q63 400 -93 487q-46 25 -103 25h-266l16 92q126 41 315 41q214 0 288 -154q85 -176 11 -583q-71 -412 -219 -584q-133 -153 -360 -153q-188 0 -301 40z" />
<glyph unicode="&#x42e;" horiz-adv-x="1443" d="M143 0l252 1434h185l-113 -635h154q88 367 221 516q123 139 325 139q214 0 288 -154q85 -176 11 -583q-102 -592 -373 -703q-85 -34 -183.5 -34t-168 31.5t-109.5 109.5q-80 157 -36 534h-154l-114 -655h-185zM758 414q0 -312 170 -312q169 0 279 312q42 118 75 303 q33 184 33 303t-23 188q-39 123 -147 123q-170 0 -280 -311q-42 -119 -74 -303q-33 -184 -33 -303z" />
<glyph unicode="&#x42f;" horiz-adv-x="1024" d="M20 0l15 92q78 0 120 36t68 97l72 174q79 193 192 228l2 8q-175 29 -211 227q-12 70 6.5 173.5t56.5 185.5t101 134q121 99 367 99q192 0 319 -41l-247 -1413h-185l103 584h-82q-148 0 -228 -185l-71 -174q-104 -246 -279 -245q-62 0 -119 20zM467 1024 q-29 -162 22.5 -229.5t190.5 -67.5h143l105 594h-144q-139 0 -213.5 -67.5t-103.5 -229.5z" />
<glyph unicode="&#x430;" horiz-adv-x="952" d="M182 512q53 301 170 420q110 112 322 112q177 0 317 -61l-172 -983h-153v61h-11q-98 -81 -229 -81q-173 0 -230 112q-67 130 -14 420zM367 512q-63 -337 55 -392q37 -18 81 -18q89 0 156 41l138 779h-144q-106 0 -171 -83q-78 -100 -115 -327z" />
<glyph unicode="&#x431;" horiz-adv-x="972" d="M197 481l59 338q61 347 200 483q72 72 175.5 104t247.5 38l227 10l-4 -82q-149 -58 -254 -69t-164 -33.5t-103 -65.5q-89 -87 -120 -272q109 51 210 51t163.5 -25.5t98.5 -83.5q70 -114 21 -393q-49 -275 -162 -392q-107 -109 -305 -109q-196 0 -266 109q-73 115 -24 392 zM381 481q-55 -314 50 -371q32 -18 75 -18q92 0 152 79q75 97 112 310q55 308 -70 361q-41 18 -93 18q-102 0 -167 -41z" />
<glyph unicode="&#x432;" horiz-adv-x="921" d="M135 20l174 984q143 40 272.5 40t194 -13t104.5 -46q79 -65 52 -227q-18 -100 -70.5 -145.5t-109.5 -65.5l-2 -8q119 -36 141 -152q8 -43 -5 -117.5t-47 -134t-87 -94.5q-91 -61 -295 -61q-187 0 -322 40zM334 102h143q92 0 150.5 38t78 145.5t-25.5 146.5t-137 39h-144z M422 594h123q78 0 132 36t71 128q29 164 -146 164h-123z" />
<glyph unicode="&#x433;" horiz-adv-x="808" d="M117 266q37 212 293 302q161 57 214.5 103t65.5 115q23 136 -201 136h-204l14 82q122 40 280 40t240 -56t55 -210q-37 -211 -294 -302q-156 -55 -226 -112q-43 -36 -53 -98q-16 -92 41 -128t197 -36h204l-14 -82q-117 -40 -239 -40t-196.5 13t-118.5 46q-87 65 -58 227z " />
<glyph unicode="&#x434;" horiz-adv-x="931" d="M158 440q66 363 280 436q72 25 169.5 25t197.5 -51q51 314 -231 443q-87 40 -193 59l39 102q334 -31 471 -204t78 -513l-54 -297q-46 -254 -155 -357q-110 -103 -303 -103q-196 0 -267 103q-77 110 -32 357zM342 440q-63 -348 133 -348q143 0 213 182q25 66 43 166 l53 297q-51 41 -126.5 41t-123 -16.5t-84.5 -55.5q-78 -86 -108 -266z" />
<glyph unicode="&#x435;" horiz-adv-x="890" d="M182 512q52 297 166 420q106 112 294.5 112t264.5 -87t49 -233t-122 -220t-287 -74h-195q-35 -184 19.5 -256t208.5 -72h204l-14 -82q-118 -40 -242.5 -40t-202 25.5t-118.5 86.5q-80 120 -25 420zM373 553h194q86 0 137.5 43t67.5 132t-25.5 146.5t-111.5 57.5 q-92 0 -153 -78q-71 -92 -109 -301z" />
<glyph unicode="&#x436;" horiz-adv-x="1314" d="M20 0l15 82q102 0 135 72l84 194q45 100 93 139t108 52l2 8q-45 12 -72 50t-43 130l-27 143q-4 31 -25.5 51.5t-82.5 20.5l14 82q18 4 37 9q40 11 78 11q86 0 122 -41.5t52 -132.5l27 -143q21 -123 94 -123h41l73 420h185l-74 -420h41q70 0 135 123l76 143 q49 88 100.5 131t134.5 43q34 0 63 -8t48 -12l-14 -82q-100 0 -137 -72l-76 -143q-47 -92 -88 -130t-88 -50l-2 -8q53 -12 87.5 -51t43.5 -140l18 -194q5 -72 111 -72l-15 -82q-53 -20 -128 -20q-146 0 -162 174l-19 194q-4 61 -34.5 92t-78.5 31h-41l-81 -471h-185l82 471 h-41q-100 0 -157 -123l-84 -194q-39 -86 -94.5 -130t-122.5 -44q-85 0 -128 20z" />
<glyph unicode="&#x437;" horiz-adv-x="778" d="M33 20l14 82h246q117 0 183.5 38t84.5 147q19 99 -27 147q-35 37 -114 37h-174l22 123h154q70 0 128 36t75 128q16 92 -37 128t-170 36h-205l14 82q122 40 235 40t182 -13t111 -46q81 -64 54 -227q-27 -133 -136 -186q-32 -15 -65 -25l-2 -8q119 -36 142 -152 q8 -43 -5.5 -117.5t-47 -134t-91.5 -94.5q-100 -61 -332 -61q-126 0 -239 40z" />
<glyph unicode="&#x438;" horiz-adv-x="972" d="M182 287l131 737h185l-131 -737q-19 -98 29 -147q39 -38 132 -38q83 0 152 41l156 881h184l-180 -1024h-154v61h-10q-98 -81 -230 -81q-160 0 -221 61q-73 73 -43 246z" />
<glyph unicode="&#x439;" horiz-adv-x="972" d="M182 287l131 737h185l-131 -737q-19 -98 29 -147q39 -38 132 -38q83 0 152 41l156 881h184l-180 -1024h-154v61h-10q-98 -81 -230 -81q-160 0 -221 61q-73 73 -43 246zM432 1290l96 82q25 -31 72.5 -56.5t108.5 -25.5q111 0 209 82l67 -82q-49 -61 -126 -102t-177 -41 t-160.5 41t-89.5 102z" />
<glyph unicode="&#x43a;" d="M133 0l180 1024h185l-74 -420h70q70 0 135 123l76 143q49 88 100 131t135 43q32 0 62 -8t49 -12l-15 -82q-100 0 -137 -72l-76 -143q-47 -92 -88 -130t-88 -50l-2 -8q53 -12 88 -51t43 -140l19 -194q5 -72 110 -72l-14 -82q-53 -20 -128 -20q-147 0 -163 174l-18 194 q-4 61 -35 92t-78 31h-70l-82 -471h-184z" />
<glyph unicode="&#x43b;" horiz-adv-x="964" d="M0 0l14 82q61 0 118.5 57.5t88.5 188.5l164 696h627l-181 -1024h-184l156 891h-266l-131 -563q-43 -184 -124 -266t-173 -82q-47 0 -77 10t-32 10z" />
<glyph unicode="&#x43c;" horiz-adv-x="1290" d="M113 0l252 1024h215l127 -645h8l356 645h215l-108 -1024h-174l75 727h-10l-315 -573h-164l-115 573h-10l-178 -727h-174z" />
<glyph unicode="&#x43d;" horiz-adv-x="972" d="M133 0l180 1024h185l-78 -440h338l78 440h184l-180 -1024h-185l78 451h-338l-78 -451h-184z" />
<glyph unicode="&#x43e;" horiz-adv-x="942" d="M182 512q77 426 304 506q75 26 167 26q195 0 263 -116q76 -130 24 -416q-77 -426 -305 -506q-76 -26 -168 -26q-194 0 -262 116q-74 124 -23 416zM367 512q-62 -333 47 -400q32 -20 71 -20q192 0 271 420q68 420 -121 420q-89 0 -151 -87q-81 -112 -117 -333z" />
<glyph unicode="&#x43f;" horiz-adv-x="972" d="M133 0l180 1024h154l-2 -61h10q98 81 230 81q160 0 221 -61q73 -73 43 -246l-129 -737h-185l129 737q23 149 -84 177q-34 8 -75 8q-85 0 -154 -41l-154 -881h-184z" />
<glyph unicode="&#x440;" horiz-adv-x="952" d="M59 -410l254 1434h154l-2 -61h10q98 81 230 81q171 0 230 -112q66 -128 15 -420q-56 -300 -162 -420q-100 -112 -280 -112q-91 0 -186 51l-78 -441h-185zM342 143q51 -41 117.5 -41t109.5 17.5t80 63.5q72 90 117 329q20 123 20 202t-20 125q-37 83 -143 83 q-83 0 -152 -41z" />
<glyph unicode="&#x441;" horiz-adv-x="768" d="M182 512q52 297 166 420q106 112 305 112q132 0 240 -40l-14 -82h-205q-121 0 -190 -83q-79 -96 -117 -327q-44 -237 3 -329q41 -81 179 -81h205l-15 -82q-117 -40 -236.5 -40t-190 25.5t-108.5 86.5q-76 123 -22 420z" />
<glyph unicode="&#x442;" horiz-adv-x="1413" d="M133 0l180 1024h154l-2 -61h10q98 81 219 81q160 0 215 -90q77 61 206 84q34 6 78 6t94 -13t83 -48q69 -73 39 -246l-129 -737h-184l129 737q22 148 -73 177q-28 8 -66 8q-87 0 -154 -41q4 -23 4 -60t-8 -84l-129 -737h-185l129 737q28 185 -131 185q-72 0 -141 -41 l-154 -881h-184z" />
<glyph unicode="&#x443;" d="M63 -389l15 82h143q81 0 129 54q57 64 117 233q-190 0 -203 245l-43 799h185l43 -799q7 -112 65 -112l332 911h184l-379 -1044q-78 -215 -176 -312.5t-235 -97.5q-93 0 -177 41z" />
<glyph unicode="&#x444;" horiz-adv-x="1228" d="M172 512q86 488 533 522l69 400h184l-69 -400q205 -16 299 -142t48 -381q-88 -487 -531 -521l-72 -400h-184l71 400q-433 34 -348 522zM356 512q-50 -302 84 -372q43 -23 101 -27l141 798q-127 -9 -203 -96q-86 -99 -123 -303zM725 113q262 18 328 399q51 301 -86 372 q-43 23 -101 27z" />
<glyph unicode="&#x445;" horiz-adv-x="819" d="M31 0l346 522l-158 502h184l119 -379l254 379h185l-338 -502l165 -522h-184l-125 399l-264 -399h-184z" />
<glyph unicode="&#x446;" horiz-adv-x="1013" d="M182 287l131 737h185l-131 -737q-19 -98 29 -147q39 -38 132 -38q83 0 152 41l156 881h184l-143 -809q-12 -82 67 -82h62l-76 -430h-113q-22 113 -8 297q-85 0 -111 72h-10q-47 -47 -113.5 -69.5t-134.5 -22.5t-124 13t-91 48q-73 73 -43 246z" />
<glyph unicode="&#x447;" horiz-adv-x="931" d="M209 666l63 358h185l-64 -358q-18 -100 32 -137t142 -37h133l95 532h184l-180 -1024h-185l68 389q-103 -20 -202 -20t-149 13t-82 47q-70 74 -40 237z" />
<glyph unicode="&#x448;" horiz-adv-x="1413" d="M182 287l131 737h185l-131 -737q-18 -98 25 -147q35 -38 94 -38q106 0 173 41q-4 23 -4 60t9 84l131 737h184l-131 -737q-18 -98 26 -147q34 -38 89 -38q90 0 157 41l156 881h184l-180 -1024h-154v61h-10q-98 -81 -219 -81q-158 0 -215 90q-77 -61 -206 -84 q-34 -6 -77.5 -6t-94 13t-83.5 48q-69 73 -39 246z" />
<glyph unicode="&#x449;" horiz-adv-x="1454" d="M182 287l131 737h185l-131 -737q-18 -98 25 -147q35 -38 94 -38q106 0 173 41q-4 23 -4 60t9 84l131 737h184l-131 -737q-18 -98 26 -147q34 -38 89 -38q90 0 157 41l156 881h184l-143 -809q-12 -82 67 -82h62l-76 -430h-113q-22 113 -8 297q-87 0 -110 72h-11 q-92 -92 -240.5 -92t-205.5 90q-77 -61 -206 -84q-34 -6 -77.5 -6t-94 13t-83.5 48q-69 73 -39 246z" />
<glyph unicode="&#x44a;" horiz-adv-x="1034" d="M197 891l24 133h389l-71 -399q117 20 200 20t139 -14.5t91 -50.5q71 -75 37 -273q-34 -191 -140 -264q-91 -63 -297 -63q-186 0 -321 40l153 871h-204zM446 102h144q92 0 150.5 41t80.5 164q20 123 -22.5 164t-134.5 41h-144z" />
<glyph unicode="&#x44b;" horiz-adv-x="1290" d="M135 20l178 1004h185l-72 -399q118 20 198.5 20t134.5 -14.5t88 -50.5q70 -75 36 -273q-34 -191 -139 -264q-89 -63 -287 -63q-187 0 -322 40zM334 102h143q86 0 142.5 41t78.5 164q20 120 -20 165q-37 40 -127 40h-143zM973 0l180 1024h184l-180 -1024h-184z" />
<glyph unicode="&#x44c;" horiz-adv-x="921" d="M135 20l178 1004h185l-72 -399q118 20 200.5 20t138.5 -14.5t91 -50.5q71 -75 37 -273q-34 -191 -139 -264q-92 -63 -297 -63q-187 0 -322 40zM334 102h143q92 0 150.5 41t81.5 164q20 123 -23 164t-135 41h-143z" />
<glyph unicode="&#x44d;" horiz-adv-x="768" d="M33 20l14 82h205q131 0 203 76q73 76 116 283h-317l25 133h317q23 178 -19 253t-159 75h-205l14 82q122 40 235 40t180 -25.5t104 -86.5q72 -123 20 -420q-57 -303 -171 -420q-110 -112 -323 -112q-126 0 -239 40z" />
<glyph unicode="&#x44e;" horiz-adv-x="1280" d="M133 0l180 1024h185l-76 -430h133q57 240 166.5 345t279.5 105q193 0 257 -116q71 -130 20 -416q-53 -292 -166 -416q-105 -116 -286 -116t-253.5 108.5t-44.5 362.5h-133l-78 -451h-184zM702 308q0 -216 132 -216q181 0 260 420q20 123 20 204q0 216 -131 216 q-132 0 -209 -216q-29 -81 -50.5 -204t-21.5 -204z" />
<glyph unicode="&#x44f;" d="M20 0l15 82q61 0 90 20.5t45 51.5l76 143q37 70 72.5 98.5t76.5 40.5l2 8q-103 4 -161 82q-59 80 -40 188.5t56 170t92 97.5q95 62 289 62q192 0 321 -40l-176 -1004h-184l70 399h-70q-98 0 -154 -102l-75 -143q-49 -90 -100.5 -132t-135.5 -42q-52 0 -109 20zM383 727 q-20 -115 24 -155t136 -40h143l70 390h-144q-92 0 -150.5 -40t-78.5 -155z" />
<glyph unicode="&#x451;" horiz-adv-x="890" d="M182 512q52 297 166 420q106 112 294.5 112t264.5 -87t49 -233t-122 -220t-287 -74h-195q-35 -184 19.5 -256t208.5 -72h204l-14 -82q-118 -40 -242.5 -40t-202 25.5t-118.5 86.5q-80 120 -25 420zM373 553h194q86 0 137.5 43t67.5 132t-25.5 146.5t-111.5 57.5 q-92 0 -153 -78q-71 -92 -109 -301zM399 1167l39 226h185l-39 -226h-185zM727 1167l39 226h184l-39 -226h-184z" />
<glyph unicode="&#x452;" horiz-adv-x="972" d="M164 0l196 1116h-122l22 133h123l33 185h184l-33 -185h287l-16 -92q-126 -41 -252 -41h-41l-33 -184q109 51 204 51t147 -13.5t86 -47.5q72 -73 40 -246l-65 -369q-33 -184 -108 -255.5t-206 -71.5q-74 0 -127 40l15 82h82q61 0 99 41t60 164l66 369q23 151 -85 176 q-34 8 -75 8q-90 0 -153 -41l-144 -819h-184z" />
<glyph unicode="&#x453;" horiz-adv-x="808" d="M117 266q37 212 293 302q161 57 214.5 103t65.5 115q23 136 -201 136h-204l14 82q122 40 280 40t240 -56t55 -210q-37 -211 -294 -302q-156 -55 -226 -112q-43 -36 -53 -98q-16 -92 41 -128t197 -36h204l-14 -82q-117 -40 -239 -40t-196.5 13t-118.5 46q-87 65 -58 227z M559 1147l119 266h194l-190 -266h-123z" />
<glyph unicode="&#x454;" horiz-adv-x="768" d="M182 512q52 297 166 420q106 112 305 112q132 0 240 -40l-14 -82h-205q-117 0 -185.5 -75t-107.5 -253h317l-24 -133h-318q-27 -203 16 -283q42 -76 177 -76h205l-15 -82q-117 -40 -236.5 -40t-190 25.5t-108.5 86.5q-76 123 -22 420z" />
<glyph unicode="&#x455;" horiz-adv-x="808" d="M84 20l14 82h205q139 0 209 36t86 128q10 61 -18.5 97t-76.5 63t-106.5 50.5t-105.5 59.5q-109 85 -82 240.5t128 211.5t286 56q132 0 239 -40l-14 -82h-205q-228 0 -249 -136q-11 -69 17.5 -105t77 -62.5t106.5 -50t105 -60.5q111 -86 82 -242q-27 -161 -137 -227 q-98 -59 -321 -59q-128 0 -240 40z" />
<glyph unicode="&#x456;" horiz-adv-x="450" d="M133 0l180 1024h185l-181 -1024h-184zM338 1167l39 226h184l-39 -226h-184z" />
<glyph unicode="&#x457;" horiz-adv-x="450" d="M133 0l180 1024h185l-181 -1024h-184zM174 1167l39 226h184l-39 -226h-184zM502 1167l39 226h184l-39 -226h-184z" />
<glyph unicode="&#x458;" horiz-adv-x="491" d="M-190 -389l14 82h143q141 0 180 225l197 1106h184l-196 -1106q-47 -285 -230 -334q-55 -14 -109 -14q-101 0 -183 41zM369 1167l39 226h184l-39 -226h-184z" />
<glyph unicode="&#x459;" horiz-adv-x="1433" d="M0 0l14 82q61 0 118.5 57.5t88.5 188.5l164 696h625l-72 -399q118 20 200.5 20t138.5 -14.5t91 -50.5q71 -75 37 -273q-34 -191 -139 -264q-92 -63 -297 -63q-187 0 -322 40l154 871h-264l-131 -563q-43 -184 -124 -266t-173 -82q-47 0 -77 10t-32 10zM846 102h143 q92 0 150.5 41t81.5 164q20 123 -23 164t-135 41h-143z" />
<glyph unicode="&#x45a;" horiz-adv-x="1443" d="M133 0l180 1024h185l-74 -420h338l74 420h184l-78 -440q118 20 200.5 20t137.5 -13t90 -49q71 -73 41 -255q-30 -175 -136 -246q-91 -61 -296 -61q-187 0 -322 40l80 451h-338l-82 -471h-184zM856 102h143q92 0 150.5 38t78 145.5t-25.5 146.5t-137 39h-143z" />
<glyph unicode="&#x45b;" horiz-adv-x="1003" d="M164 0l196 1116h-122l22 133h123l33 185h184l-33 -185h287l-16 -92q-126 -41 -252 -41h-41l-33 -184q109 51 204 51t147 -13.5t86 -47.5q72 -73 40 -246l-119 -676h-184l119 676q23 151 -85 176q-34 8 -75 8q-90 0 -153 -41l-144 -819h-184z" />
<glyph unicode="&#x45c;" d="M133 0l180 1024h185l-74 -420h70q70 0 135 123l76 143q49 88 100 131t135 43q32 0 62 -8t49 -12l-15 -82q-100 0 -137 -72l-76 -143q-47 -92 -88 -130t-88 -50l-2 -8q53 -12 88 -51t43 -140l19 -194q5 -72 110 -72l-14 -82q-53 -20 -128 -20q-147 0 -163 174l-18 194 q-4 61 -35 92t-78 31h-70l-82 -471h-184zM600 1147l119 266h194l-190 -266h-123z" />
<glyph unicode="&#x45e;" d="M63 -389l15 82h143q81 0 129 54q57 64 117 233q-190 0 -203 245l-43 799h185l43 -799q7 -112 65 -112l332 911h184l-379 -1044q-78 -215 -176 -312.5t-235 -97.5q-93 0 -177 41zM412 1290l96 82q25 -31 72 -56.5t108 -25.5q111 0 209 82l68 -82q-49 -61 -126 -102 t-177 -41t-161 41t-89 102z" />
<glyph unicode="&#x45f;" horiz-adv-x="972" d="M133 0l180 1024h185l-158 -891h338l158 891h184l-180 -1024h-262l-82 -287h-123l20 287h-260z" />
<glyph unicode="&#x490;" horiz-adv-x="839" d="M143 0l252 1434h508l45 174h133l-55 -318h-471l-227 -1290h-185z" />
<glyph unicode="&#x491;" horiz-adv-x="747" d="M133 0l180 1024h445l49 184h133l-57 -317h-410l-156 -891h-184z" />
<glyph unicode="&#x2000;" horiz-adv-x="901" />
<glyph unicode="&#x2001;" horiz-adv-x="1802" />
<glyph unicode="&#x2002;" horiz-adv-x="901" />
<glyph unicode="&#x2003;" horiz-adv-x="1802" />
<glyph unicode="&#x2004;" horiz-adv-x="600" />
<glyph unicode="&#x2005;" horiz-adv-x="450" />
<glyph unicode="&#x2006;" horiz-adv-x="300" />
<glyph unicode="&#x2007;" horiz-adv-x="300" />
<glyph unicode="&#x2008;" horiz-adv-x="225" />
<glyph unicode="&#x2009;" horiz-adv-x="360" />
<glyph unicode="&#x200a;" horiz-adv-x="100" />
<glyph unicode="&#x2010;" horiz-adv-x="737" d="M156 543l26 143h615l-27 -143h-614z" />
<glyph unicode="&#x2011;" horiz-adv-x="737" d="M156 543l26 143h615l-27 -143h-614z" />
<glyph unicode="&#x2012;" horiz-adv-x="737" d="M156 543l26 143h615l-27 -143h-614z" />
<glyph unicode="&#x2013;" horiz-adv-x="942" d="M150 502l24 143h819l-24 -143h-819z" />
<glyph unicode="&#x2014;" horiz-adv-x="1310" d="M150 502l24 143h1188l-25 -143h-1187z" />
<glyph unicode="&#x2018;" horiz-adv-x="348" d="M254 983l141 451h133l-79 -451h-195z" />
<glyph unicode="&#x2019;" horiz-adv-x="348" d="M254 983l80 451h194l-141 -451h-133z" />
<glyph unicode="&#x201a;" horiz-adv-x="348" d="M39 -236l80 451h194l-141 -451h-133z" />
<glyph unicode="&#x201c;" horiz-adv-x="655" d="M244 983l141 451h133l-80 -451h-194zM551 983l141 451h133l-80 -451h-194z" />
<glyph unicode="&#x201d;" horiz-adv-x="655" d="M254 983l80 451h194l-141 -451h-133zM561 983l80 451h195l-142 -451h-133z" />
<glyph unicode="&#x201e;" horiz-adv-x="655" d="M39 -236l80 451h194l-141 -451h-133zM346 -236l80 451h195l-142 -451h-133z" />
<glyph unicode="&#x2026;" horiz-adv-x="1044" d="M80 -10l39 225h184l-39 -225h-184zM428 -10l39 225h184l-39 -225h-184zM776 -10l39 225h184l-38 -225h-185z" />
<glyph unicode="&#x202f;" horiz-adv-x="360" />
<glyph unicode="&#x2039;" horiz-adv-x="604" d="M131 512l455 492l119 -82l-369 -406l-2 -8l225 -406l-147 -82z" />
<glyph unicode="&#x203a;" horiz-adv-x="604" d="M78 102l368 406l3 8l-226 406l148 82l282 -492l-456 -492z" />
<glyph unicode="&#x205f;" horiz-adv-x="450" />
<glyph unicode="&#x20ac;" horiz-adv-x="952" d="M111 512l43 133h122l25 143h-143l45 134h133q119 428 354 506q76 26 164 26q191 0 295 -41l-16 -92h-267q-172 0 -274 -203q-39 -78 -72 -196h420l-45 -134h-410l-24 -143h379l-43 -133h-348q-27 -327 121 -382q46 -17 104 -17h266l-16 -93q-117 -40 -314 -40t-277 112 q-92 129 -69 420h-153z" />
<glyph unicode="&#x2122;" horiz-adv-x="1361" d="M254 1331l18 103h502l-18 -103h-185l-90 -512h-133l90 512h-184zM707 819l149 615h158l102 -379l238 379h157l-67 -615h-131l45 420l-205 -328h-123l-90 328l-102 -420h-131z" />
<glyph unicode="&#x25fc;" horiz-adv-x="1025" d="M0 0v1025h1025v-1025h-1025z" />
</font>
</defs>
</svg>
