<?xml version="1.0" standalone="no"?>
<!DOCTYPE svg PUBLIC "-//W3C//DTD SVG 1.1//EN" "http://www.w3.org/Graphics/SVG/1.1/DTD/svg11.dtd" >
<svg xmlns="http://www.w3.org/2000/svg">
<metadata></metadata>
<defs>
<font id="haettenschweilerregular" horiz-adv-x="729" >
<font-face units-per-em="2048" ascent="1638" descent="-410" />
<missing-glyph horiz-adv-x="365" />
<glyph horiz-adv-x="0" />
<glyph unicode="&#xd;" horiz-adv-x="682" />
<glyph unicode=" "  horiz-adv-x="365" />
<glyph unicode="&#x09;" horiz-adv-x="365" />
<glyph unicode="&#xa0;" horiz-adv-x="365" />
<glyph unicode="!" horiz-adv-x="344" d="M30 0v209h285v-209h-285zM30 272v1162h285v-1162h-285z" />
<glyph unicode="&#x22;" horiz-adv-x="766" d="M21 956l134 478h278l-291 -498zM333 956l133 478h278l-290 -498z" />
<glyph unicode="#" horiz-adv-x="1645" d="M28 283l52 284h280l54 299h-281l49 285h283l49 283h285l-50 -283h299l50 283h284l-49 -283h283l-49 -285h-285l-51 -299h282l-51 -284h-283l-49 -283h-284l49 283h-299l-49 -283h-285l49 283h-283zM647 567h297l53 299h-299z" />
<glyph unicode="$" horiz-adv-x="776" d="M30 244v327h287v-329q0 -49 59 -49q57 0 57 49v170q0 54 -40.5 108.5t-258.5 267.5q-104 117 -104 216v161q0 220 213 265v98h284v-98q193 -47 193 -240v-248h-287v264q0 43 -47 43q-55 0 -55 -83l6 -93q0 -79 106 -188q214 -212 259 -280t45 -152v-183q0 -230 -220 -274 v-94h-284v98q-213 54 -213 244z" />
<glyph unicode="%" horiz-adv-x="709" d="M27 0l518 1434h137l-518 -1434h-137zM45 965v378q0 101 139 101q140 0 140 -101v-378q0 -93 -140 -93q-139 0 -139 93zM164 961q0 -17 20 -17q19 0 19 17v395q0 16 -19 16q-20 0 -20 -16v-395zM387 76v379q0 100 139 100q140 0 140 -100v-379q0 -92 -140 -92 q-139 0 -139 92zM506 72q0 -17 20 -17q19 0 19 17v395q0 16 -19 16q-20 0 -20 -16v-395z" />
<glyph unicode="&#x26;" horiz-adv-x="872" d="M34 270v269q0 190 188 233q-178 61 -178 205v211q0 116 97.5 186t234.5 70q131 0 234.5 -64.5t103.5 -195.5v-176h-271l6 119q0 120 -63 120q-57 0 -57 -59v-227q0 -66 24.5 -82.5t94.5 -16.5v-174q-70 0 -92.5 -13.5t-22.5 -86.5v-344q0 -60 57 -60q58 0 58 60v317h397 v-164h-103v-182q0 -109 -103 -170t-249 -61q-144 0 -250 68.5t-106 217.5z" />
<glyph unicode="'" horiz-adv-x="455" d="M21 956l134 478h278l-291 -498z" />
<glyph unicode="(" horiz-adv-x="506" d="M30 264v899q0 163 36.5 222t231.5 59h182v-156q-165 0 -165 -69v-1010q0 -70 165 -70v-155h-182q-167 0 -217.5 71t-50.5 209z" />
<glyph unicode=")" horiz-adv-x="506" d="M26 -16v155q166 0 166 70v1010q0 69 -166 69v156h182q191 0 229.5 -58.5t38.5 -222.5v-899q0 -164 -60.5 -222t-207.5 -58h-182z" />
<glyph unicode="*" horiz-adv-x="862" d="M28 1081l51 156l270 -88v285h164v-285l270 88l52 -156l-273 -88l168 -229l-133 -96l-166 229l-166 -229l-133 96l168 229z" />
<glyph unicode="+" horiz-adv-x="764" d="M22 279v161h278v279h162v-279h279v-161h-279v-279h-162v279h-278z" />
<glyph unicode="," horiz-adv-x="322" d="M31 0v209h260v-143q0 -130 -164 -238l-57 47q67 67 73 125h-112z" />
<glyph unicode="-" horiz-adv-x="461" d="M37 510v161h407v-161h-407z" />
<glyph unicode="." horiz-adv-x="315" d="M28 0v209h260v-209h-260z" />
<glyph unicode="/" horiz-adv-x="684" d="M28 0l458 1434h170l-458 -1434h-170z" />
<glyph unicode="0" horiz-adv-x="795" d="M30 245v923q0 279 371 279q364 0 364 -277v-923q0 -124 -102.5 -192t-263.5 -68q-166 0 -267.5 67t-101.5 191zM345 230q0 -43 54 -43q51 0 51 43v977q0 43 -51 43q-54 0 -54 -43v-977z" />
<glyph unicode="1" horiz-adv-x="500" d="M29 1051v209q69 0 116.5 59t47.5 115h272v-1434h-315v1051h-121z" />
<glyph unicode="2" horiz-adv-x="770" d="M26 0v190l354 650q58 106 58 290q0 96 -64 96q-66 0 -66 -60v-246h-282v250q0 277 356 277q220 0 291.5 -101.5t71.5 -333.5q0 -91 -31 -150l-354 -678h385v-184h-719z" />
<glyph unicode="3" horiz-adv-x="768" d="M27 259v342h289v-340q0 -53 57 -53t57 53v332q0 57 -28.5 77.5t-106.5 20.5v162q135 0 135 84v254q0 43 -57 43q-59 0 -59 -43v-264h-279v266q0 254 352 254q141 0 246 -61t105 -193v-197q0 -172 -164 -231q168 -49 168 -266v-213q0 -299 -355 -299q-360 0 -360 272z" />
<glyph unicode="4" horiz-adv-x="903" d="M8 184v203l309 1047h424v-1035h156v-215h-156v-184h-307v184h-426zM291 399h143v566z" />
<glyph unicode="5" horiz-adv-x="770" d="M26 245v357h307v-368q0 -47 53 -47q52 0 52 47v477q0 51 -58 51q-53 0 -55 -88l-295 8l16 752h707l-49 -217h-357l-14 -295q47 47 164 47q248 0 248 -213v-509q0 -124 -99 -192t-260 -68q-360 0 -360 258z" />
<glyph unicode="6" horiz-adv-x="768" d="M25 245v923q0 279 362 279q357 0 357 -277v-145h-307l6 116q0 111 -58 111q-53 0 -53 -47v-280q35 47 150 47q114 0 188 -57t74 -156v-512q0 -125 -99.5 -192.5t-259.5 -67.5q-360 0 -360 258zM332 234q0 -47 53 -47q52 0 52 47v469q0 48 -52 48q-53 0 -53 -48v-469z" />
<glyph unicode="7" horiz-adv-x="770" d="M20 0l394 1233h-371v201h711v-205l-394 -1229h-340z" />
<glyph unicode="8" horiz-adv-x="774" d="M28 259v295q0 182 166 221q-158 49 -158 268v150q0 254 352 254q141 0 246 -61t105 -193v-150q0 -219 -158 -268q166 -40 166 -221v-295q0 -272 -361 -272q-358 0 -358 272zM335 230q0 -43 53 -43q52 0 52 43v418q0 43 -52 43q-53 0 -53 -43v-418zM335 908q0 -43 53 -43 q52 0 52 43v299q0 43 -52 43q-53 0 -53 -43v-299z" />
<glyph unicode="9" horiz-adv-x="776" d="M29 263v336h307v-365q0 -47 53 -47q52 0 52 47v426q-34 -36 -127 -36q-126 0 -205.5 60.5t-79.5 168.5v334q0 125 99 192.5t259 67.5q162 0 261.5 -67t99.5 -191v-924q0 -278 -363 -278q-356 0 -356 276zM336 861q0 -47 53 -47q52 0 52 47v344q0 47 -52 47q-53 0 -53 -47 v-344z" />
<glyph unicode=":" horiz-adv-x="317" d="M29 -2v209h260v-209h-260zM29 688v209h260v-209h-260z" />
<glyph unicode=";" horiz-adv-x="317" d="M28 0v209h260v-143q0 -130 -164 -238l-57 47q67 67 73 125h-112zM30 688v209h260v-209h-260z" />
<glyph unicode="&#x3c;" horiz-adv-x="782" d="M32 279v161l719 262v-161l-498 -183l498 -182v-162z" />
<glyph unicode="=" horiz-adv-x="782" d="M32 117v162h719v-162h-719zM32 440v162h719v-162h-719z" />
<glyph unicode="&#x3e;" horiz-adv-x="780" d="M31 14v162l497 182l-497 183v161l719 -262v-161z" />
<glyph unicode="?" horiz-adv-x="727" d="M34 840v350q0 254 323 254q162 0 252 -56t90 -223v-184q0 -90 -29.5 -154t-134.5 -185q-70 -81 -84 -144t-14 -230h-284v39q0 151 18.5 224.5t131.5 214.5q99 123 99 202v258q0 43 -47 43t-47 -43v-366h-274zM153 0v209h284v-209h-284z" />
<glyph unicode="@" horiz-adv-x="1640" d="M31 604q0 361 227.5 600.5t579.5 239.5q360 0 568 -206.5t208 -633.5q0 -199 -118 -333t-308 -134q-167 0 -244 99q-76 -97 -266 -97q-234 0 -234 183v514q0 182 234 182q143 0 182 -62v54h252v-570q0 -137 82 -137q244 0 244 307q0 668 -604 668q-335 0 -486 -199 t-151 -469q0 -273 152.5 -477.5t484.5 -204.5q256 0 456 49v-172q-204 -49 -452 -49q-352 0 -579.5 243t-227.5 605zM729 373q0 -54 51 -54q47 0 47 54v410q0 55 -49 55t-49 -58v-407z" />
<glyph unicode="A" horiz-adv-x="901" d="M15 0l236 1434h399l236 -1434h-312l-53 385h-141l-53 -385h-312zM407 584h88l-45 428z" />
<glyph unicode="B" horiz-adv-x="776" d="M33 0v1434h371q133 0 231 -60.5t98 -193.5v-199q0 -151 -184 -213q194 -48 194 -207v-278q0 -142 -92.5 -212.5t-220.5 -70.5h-397zM348 184q88 0 88 76v363q0 75 -88 75v-514zM348 854q88 0 88 76v244q0 75 -88 75v-395z" />
<glyph unicode="C" horiz-adv-x="758" d="M34 245v923q0 279 364 279q326 0 326 -254v-260h-287v284q0 35 -43 35q-45 0 -45 -35v-995q0 -35 45 -35q43 0 43 35v354h287v-364q0 -102 -100 -163.5t-226 -61.5q-364 0 -364 258z" />
<glyph unicode="D" horiz-adv-x="782" d="M31 0v1434h392q128 0 228 -69.5t100 -213.5v-868q0 -134 -93.5 -208.5t-232.5 -74.5h-394zM346 184q88 0 88 76v914q0 75 -88 75v-1065z" />
<glyph unicode="E" horiz-adv-x="668" d="M35 0v1434h612v-185h-297v-387h268v-174h-268v-504h301v-184h-616z" />
<glyph unicode="F" horiz-adv-x="641" d="M35 0v1434h590v-185h-275v-387h246v-174h-246v-688h-315z" />
<glyph unicode="G" horiz-adv-x="758" d="M32 232v936q0 279 356 279q338 0 338 -254v-266h-285v290q0 35 -47 35t-47 -35v-995q0 -35 47 -35t47 35v268h-65v220h350v-710h-151l-41 79q-104 -92 -220 -92q-113 0 -197.5 58.5t-84.5 186.5z" />
<glyph unicode="H" horiz-adv-x="778" d="M30 0v1434h315v-572h88v572h315v-1434h-315v688h-88v-688h-315z" />
<glyph unicode="I" horiz-adv-x="373" d="M29 0v1434h315v-1434h-315z" />
<glyph unicode="J" horiz-adv-x="743" d="M32 212v364h278v-354q0 -35 44 -35t44 35v1212h315v-1189q0 -258 -357 -258q-127 0 -225.5 62t-98.5 163z" />
<glyph unicode="K" horiz-adv-x="831" d="M39 0v1434h315v-478l138 478h292l-194 -654l231 -780h-346l-121 532v-532h-315z" />
<glyph unicode="L" horiz-adv-x="643" d="M38 0v1434h315v-1250h276v-184h-591z" />
<glyph unicode="M" horiz-adv-x="1167" d="M36 0v1434h405l144 -744l125 744h422v-1434h-281v805l-164 -805h-217l-188 805v-805h-246z" />
<glyph unicode="N" horiz-adv-x="870" d="M35 0v1434h358l180 -654v654h263v-1434h-324l-214 764v-764h-263z" />
<glyph unicode="O" horiz-adv-x="782" d="M32 245v923q0 279 362 279q357 0 357 -277v-923q0 -125 -99.5 -192.5t-259.5 -67.5q-360 0 -360 258zM339 230q0 -43 53 -43q51 0 51 43v977q0 43 -51 43q-53 0 -53 -43v-977z" />
<glyph unicode="P" horiz-adv-x="776" d="M35 0v1434h331q197 0 292.5 -50t95.5 -204v-398q0 -142 -78 -200q-73 -55 -302 -54h-32v-528h-307zM342 733q105 0 105 76v344q0 76 -105 76v-496z" />
<glyph unicode="Q" horiz-adv-x="784" d="M33 245v923q0 279 362 279q357 0 357 -277v-923q0 -150 -158 -226q0 -34 24 -42.5t134 -8.5v-166h-125q-193 0 -193 183q-401 0 -401 258zM340 230q0 -43 53 -43q52 0 52 43v977q0 43 -52 43q-53 0 -53 -43v-977z" />
<glyph unicode="R" horiz-adv-x="821" d="M39 0v1434h389q133 0 231.5 -61t98.5 -193v-172q0 -167 -195 -226q196 -46 196 -237l-5 -157q0 -344 59 -390h-315q-51 61 -51 346v2l2 86q3 179 3 183q0 73 -98 73v-688h-315zM354 862q98 0 98 76v236q0 75 -98 75v-387z" />
<glyph unicode="S" horiz-adv-x="784" d="M34 247v327h287v-329q0 -49 59 -49q57 0 57 49v170q0 78 -104 183q-201 195 -250 262t-49 147v161q0 279 364 279q326 0 326 -254v-248h-287v264q0 43 -47 43q-55 0 -55 -83l6 -93q0 -80 106 -186q197 -189 250.5 -264t53.5 -170v-183q0 -286 -365 -286q-352 0 -352 260z " />
<glyph unicode="T" horiz-adv-x="717" d="M25 1247v187h667v-187h-176v-1247h-315v1247h-176z" />
<glyph unicode="U" horiz-adv-x="801" d="M33 245v1189h315v-1204q0 -43 53 -43q52 0 52 43v1204h315v-1187q0 -124 -103 -192t-264 -68q-149 0 -258.5 61t-109.5 197z" />
<glyph unicode="V" horiz-adv-x="846" d="M7 1434h307l109 -1002l108 1002h308l-193 -1434h-446z" />
<glyph unicode="W" horiz-adv-x="1288" d="M8 1434h283l80 -662l108 662h355l86 -662l106 662h258l-184 -1434h-373l-113 791l-106 -791h-322z" />
<glyph unicode="X" horiz-adv-x="932" d="M8 0l248 815l-184 619h303l112 -416l125 416h283l-215 -664l246 -770h-338l-144 461l-135 -461h-301z" />
<glyph unicode="Y" horiz-adv-x="901" d="M8 1434h301l142 -508l161 508h283l-206 -578l-103 -289v-567h-315v556q-9 76 -81 297q-62 187 -182 581z" />
<glyph unicode="Z" horiz-adv-x="752" d="M20 0v182l347 1065h-326v187h666v-189l-345 -1061h369v-184h-711z" />
<glyph unicode="[" horiz-adv-x="322" d="M34 0v1434h264v-78h-135v-1282h135v-74h-264z" />
<glyph unicode="\" horiz-adv-x="684" d="M28 1434h170l459 -1434h-170z" />
<glyph unicode="]" horiz-adv-x="322" d="M24 0v74h135v1282h-135v78h264v-1434h-264z" />
<glyph unicode="^" horiz-adv-x="961" d="M54 690l353 801h145l355 -801h-181l-247 597l-240 -597h-185z" />
<glyph unicode="_" horiz-adv-x="762" d="M0 -84h766v-162h-766v162z" />
<glyph unicode="`" horiz-adv-x="317" d="M20 1434h218l59 -185h-156z" />
<glyph unicode="a" horiz-adv-x="739" d="M36 166v233q0 78 56.5 136t227.5 145q99 50 99 80v172q0 57 -49 57q-56 0 -56 -139q0 -25 3 -74q4 -49 4 -74h-275v232q0 235 340 235q318 0 318 -245v-924h-252v45q-32 -61 -183 -61q-233 0 -233 182zM321 217q0 -53 51 -53q47 0 47 53v299q-98 -24 -98 -88v-211z" />
<glyph unicode="b" d="M31 0v1434h284v-308q51 43 177 43q77 0 141.5 -41.5t64.5 -119.5v-834q0 -88 -77 -139t-185 -51q-84 0 -166 55l-24 -39h-215zM315 217q0 -53 50 -53q49 0 49 53v719q0 53 -49 53q-50 0 -50 -51v-721z" />
<glyph unicode="c" d="M31 229v695q0 245 338 245q329 0 329 -235v-287h-284v285q0 57 -49 57q-50 0 -50 -57v-711q0 -59 50 -59q49 0 49 59v281h284v-283q0 -235 -329 -235q-338 0 -338 245z" />
<glyph unicode="d" d="M31 174v834q0 74 60.5 117.5t146.5 43.5q118 0 176 -43v308h284v-1434h-215l-24 39q-73 -55 -166 -55q-109 0 -185.5 51t-76.5 139zM315 217q0 -53 50 -53q49 0 49 53v721q0 51 -49 51q-50 0 -50 -53v-719z" />
<glyph unicode="e" horiz-adv-x="731" d="M32 229v695q0 245 332 245q335 0 335 -235v-442h-383v-271q0 -59 50 -59q49 0 49 59v234h284v-236q0 -235 -335 -235q-332 0 -332 245zM316 666h99v266q0 57 -49 57q-50 0 -50 -57v-266z" />
<glyph unicode="f" horiz-adv-x="569" d="M23 989v172h96q0 153 38.5 213t229.5 60h180v-156h-55q-73 0 -91 -27.5t-18 -89.5h164v-172h-164v-989h-284v989h-96z" />
<glyph unicode="g" d="M31 145v834q0 190 227 190q60 0 158 -51l37 43h245v-1145q0 -113 -44.5 -187.5t-276.5 -74.5h-295v168h231q101 0 101 105q-56 -43 -176 -43q-84 0 -145.5 44.5t-61.5 116.5zM315 209q0 -53 50 -53q49 0 49 51v729q0 53 -49 53q-50 0 -50 -53v-727z" />
<glyph unicode="h" horiz-adv-x="733" d="M33 0v1434h284v-308q51 43 177 43q84 0 145 -44t61 -117v-1008h-284v936q0 53 -49 53q-50 0 -50 -51v-938h-284z" />
<glyph unicode="i" horiz-adv-x="340" d="M27 0v1161h285v-1161h-285zM27 1225v209h285v-209h-285z" />
<glyph unicode="j" horiz-adv-x="365" d="M-121 -78q112 0 136 11t24 69v1159h285v-1188q0 -219 -232 -219h-213v168zM39 1225v209h285v-209h-285z" />
<glyph unicode="k" horiz-adv-x="840" d="M34 0v1434h284v-643l146 370h295l-207 -508l276 -653h-335l-175 420v-420h-284z" />
<glyph unicode="l" horiz-adv-x="352" d="M34 0v1434h285v-1434h-285z" />
<glyph unicode="m" horiz-adv-x="1118" d="M34 0v1161h284v-41q59 49 177 49q99 0 180 -79q75 79 205 79q74 0 139 -44.5t65 -123.5v-1001h-284v928q0 53 -49 53q-50 0 -50 -51v-930h-284v930q0 53 -49 53q-50 0 -50 -51v-932h-284z" />
<glyph unicode="n" d="M31 0v1161h285v-39q57 47 176 47q77 0 142 -42t65 -123v-1004h-285v932q0 53 -49 53t-49 -51v-934h-285z" />
<glyph unicode="o" horiz-adv-x="721" d="M26 229v695q0 245 339 245q131 0 230.5 -57t99.5 -178v-715q0 -235 -330 -235q-339 0 -339 245zM311 221q0 -59 50 -59q49 0 49 59v711q0 57 -49 57q-50 0 -50 -57v-711z" />
<glyph unicode="p" d="M31 -246v1407h215l24 -47q70 55 166 55q97 0 179.5 -49t82.5 -141v-834q0 -73 -60 -117t-146 -44q-119 0 -177 43v-273h-284zM315 215q0 -51 50 -51q49 0 49 53v719q0 53 -49 53q-50 0 -50 -53v-721z" />
<glyph unicode="q" d="M31 145v834q0 88 77 139t185 51q86 0 166 -55l24 47h215v-1407h-284v273q-56 -43 -176 -43q-84 0 -145.5 44.5t-61.5 116.5zM315 217q0 -53 50 -53q49 0 49 51v721q0 53 -49 53q-50 0 -50 -53v-719z" />
<glyph unicode="r" d="M39 0v1161h285v-39q57 47 176 47q85 0 146 -45.5t61 -119.5v-324h-285v252q0 53 -49 53t-49 -51v-934h-285z" />
<glyph unicode="s" horiz-adv-x="725" d="M31 219v248h284v-246q0 -59 48 -59t48 113q0 147 -59 190q-223 117 -269 163.5t-46 139.5v156q0 245 332 245q323 0 323 -235v-229h-278l6 139q0 145 -53 145t-53 -91q0 -94 23.5 -142t261.5 -165q99 -71 99 -188v-174q0 -245 -337 -245q-330 0 -330 235z" />
<glyph unicode="t" horiz-adv-x="618" d="M20 989v172h127v234h285v-234h154v-172h-154v-706q0 -51 30.5 -68.5t133.5 -17.5v-197h-180q-193 0 -231 58t-38 223v708h-127z" />
<glyph unicode="u" d="M31 145v1016h284v-944q0 -53 50 -53q49 0 49 51v946h284v-1161h-284v39q-55 -55 -176 -55q-84 0 -145.5 44.5t-61.5 116.5z" />
<glyph unicode="v" horiz-adv-x="776" d="M7 1161h287l98 -686l96 686h281l-209 -1161h-344z" />
<glyph unicode="w" horiz-adv-x="1223" d="M7 1161h275l98 -631l88 631h287l88 -631l98 631h275l-199 -1161h-313l-89 475l-81 -475h-328z" />
<glyph unicode="x" horiz-adv-x="801" d="M6 0l223 614l-217 547h301l97 -301l77 301h271l-191 -561l228 -600h-314l-98 315l-92 -315h-285z" />
<glyph unicode="y" horiz-adv-x="791" d="M7 1161h285l119 -614l94 614h278l-221 -1155q-34 -177 -91.5 -214.5t-159.5 -37.5h-199v156q112 0 139 11t27 65t-123 563z" />
<glyph unicode="z" d="M27 0v160l323 815h-305v186h635v-157l-328 -820h359v-184h-684z" />
<glyph unicode="{" horiz-adv-x="633" d="M20 623v182q147 0 147 176q0 34 -5 101q-4 67 -4 101q0 261 270 261h182v-156h-29q-137 0 -137 -69v-342q0 -114 -139 -162q139 -48 139 -164v-342q0 -70 166 -70v-155h-182q-159 0 -217 73.5t-58 220.5l3 111q4 74 4 111q0 123 -140 123z" />
<glyph unicode="|" horiz-adv-x="348" d="M32 0v1434h284v-1434h-284z" />
<glyph unicode="}" horiz-adv-x="633" d="M20 -16v155h23q143 0 143 70v342q0 116 140 164q-140 42 -140 162v342q0 69 -166 69v156h183q270 0 270 -262q0 -34 -5 -101q-4 -66 -4 -100q0 -176 146 -176v-182q-146 0 -146 -175q0 -34 5 -101t5 -101q0 -262 -271 -262h-183z" />
<glyph unicode="~" horiz-adv-x="1196" d="M87 557v205q106 120 278 120q109 0 314 -87q111 -47 173 -47q133 0 258 137v-212q-122 -114 -277 -114q-106 0 -287 81q-119 53 -198 53q-120 0 -261 -136z" />
<glyph unicode="&#xa2;" horiz-adv-x="739" d="M36 229v695q0 189 211 233v129h246v-125q210 0 210 -227v-287h-284v285q0 57 -49 57q-50 0 -50 -57v-711q0 -59 50 -59q49 0 49 59v281h284v-285q0 -187 -210 -225v-115h-246v119q-211 39 -211 233z" />
<glyph unicode="&#xa3;" horiz-adv-x="836" d="M35 659v182h76v328q0 275 366 275q269 0 338 -168l-291 -150q0 82 -6 97.5t-39 15.5q-16 0 -24 -13q-13 -22 -17 -26v-359h178v-182h-178v-475h262v-184h-589v659h-76z" />
<glyph unicode="&#xa5;" horiz-adv-x="942" d="M28 1434h301l141 -508l162 508h282l-286 -803h215v-152h-238v-106h238v-150h-238v-223h-315v223h-238v150h238v106h-238v152h219z" />
<glyph unicode="&#xa8;" horiz-adv-x="537" d="M26 1346q0 40 29.5 69t69.5 29q98 0 98 -98q0 -44 -32 -70.5t-66 -26.5q-99 0 -99 97zM313 1346q0 40 29.5 69t69.5 29q98 0 98 -98q0 -39 -29.5 -68t-68.5 -29q-99 0 -99 97z" />
<glyph unicode="&#xa9;" horiz-adv-x="834" d="M20 1049q0 167 115.5 281t282.5 114q103 0 190 -45t146 -136t59 -214q0 -168 -113 -282t-282 -114q-146 0 -272 102.5t-126 293.5zM86 1049q0 -141 95.5 -235.5t236.5 -94.5q87 0 159.5 37t121.5 113t49 180q0 139 -95.5 234t-234.5 95q-141 0 -236.5 -94t-95.5 -235z M283 870v349q0 104 135 104q123 0 123 -96v-99h-107v109l-16 12l-19 -12v-373q0 -14 19 -14q21 0 21 51l-5 94h107v-137q0 -84 -123 -84q-135 0 -135 96z" />
<glyph unicode="&#xab;" horiz-adv-x="1128" d="M35 354v162l573 356v-223l-352 -215l352 -213v-221zM520 354v162l574 356v-223l-353 -215l353 -213v-221z" />
<glyph unicode="&#xad;" horiz-adv-x="461" d="M37 510v161h407v-161h-407z" />
<glyph unicode="&#xae;" horiz-adv-x="834" d="M20 1049q0 167 115.5 281t282.5 114q103 0 190 -45t146 -136t59 -214q0 -168 -113 -282t-282 -114q-146 0 -272 102.5t-126 293.5zM86 1049q0 -141 95.5 -235.5t236.5 -94.5q87 0 159.5 37t121.5 113t49 180q0 139 -95.5 234t-234.5 95q-141 0 -236.5 -94t-95.5 -235z M276 780v539h146q123 0 123 -96v-64q0 -63 -72 -86q78 -18 78 -117l-6 -110q0 -51 24 -68h-120q-20 22 -20 75l7 117q0 68 -41 68v-258h-119zM395 1104q35 0 35 29v88q0 28 -35 28v-145z" />
<glyph unicode="&#xb4;" horiz-adv-x="317" d="M21 1249l61 185h215l-119 -185h-157z" />
<glyph unicode="&#xb8;" horiz-adv-x="1679" d="M283 -211l39 57q23 -16 39 -16q45 0 45 45q0 44 -42 44q-4 -2 -34 -11v100h116v-35q84 -19 84 -106q0 -113 -163 -113q-51 0 -84 35z" />
<glyph unicode="&#xbb;" horiz-adv-x="1120" d="M31 0v221l352 213l-352 215v223l573 -356v-162zM516 0v221l352 213l-352 215v223l574 -356v-162z" />
<glyph unicode="&#x2c6;" horiz-adv-x="635" d="M26 1249l158 238h266l158 -238h-203l-88 133l-88 -133h-203z" />
<glyph unicode="&#x2da;" horiz-adv-x="432" d="M25 1444q0 80 56.5 136t136.5 56q56 0 98 -25t67 -67t25 -98v-10q0 -80 -55 -132.5t-135 -52.5q-54 0 -97 26.5t-69.5 69.5t-26.5 97zM148 1444q0 -70 70 -70q72 0 72 70v8q0 64 -72 64q-70 0 -70 -72z" />
<glyph unicode="&#x2dc;" horiz-adv-x="727" d="M23 1249q0 238 246 238q36 0 107 -27q72 -26 108 -26q37 0 37 53h184q0 -87 -59.5 -162.5t-169.5 -75.5q-40 0 -118 29q-77 29 -117 29q-33 0 -33 -58h-185z" />
<glyph unicode="&#x401;" horiz-adv-x="668" d="M35 0v1434h612v-185h-297v-387h268v-174h-268v-504h301v-184h-616zM106 1596q0 40 29.5 69t69.5 29q98 0 98 -98q0 -44 -32 -70.5t-66 -26.5q-99 0 -99 97zM393 1596q0 40 29.5 69t69.5 29q98 0 98 -98q0 -39 -29.5 -68t-68.5 -29q-99 0 -99 97z" />
<glyph unicode="&#x402;" horiz-adv-x="971" d="M27 1247v187h790v-187h-299v-104q54 24 172 24q238 0 238 -329v-525q0 -325 -367 -325v178q80 5 80 136v572q0 89 -68 89q-55 0 -55 -91v-872h-315v1247h-176z" />
<glyph unicode="&#x403;" horiz-adv-x="643" d="M35 0v1434h589v-184h-272v-1250h-317zM191 1499l61 185h215l-119 -185h-157z" />
<glyph unicode="&#x404;" horiz-adv-x="758" d="M35 242v923q0 279 364 279q326 0 326 -254v-137h-287q0 142 -5.5 169.5t-39.5 27.5q-43 0 -43 -42v-368h279v-185h-279v-436q0 -35 45 -35q43 0 43 35v232h287v-242q0 -101 -99 -163t-227 -62q-364 0 -364 258z" />
<glyph unicode="&#x405;" horiz-adv-x="784" d="M34 247v327h287v-329q0 -49 59 -49q57 0 57 49v170q0 78 -104 183q-201 195 -250 262t-49 147v161q0 279 364 279q326 0 326 -254v-248h-287v264q0 43 -47 43q-55 0 -55 -83l6 -93q0 -80 106 -186q197 -189 250.5 -264t53.5 -170v-183q0 -286 -365 -286q-352 0 -352 260z " />
<glyph unicode="&#x406;" horiz-adv-x="373" d="M29 0v1434h315v-1434h-315z" />
<glyph unicode="&#x407;" horiz-adv-x="373" d="M-54 1596q0 40 29.5 69t69.5 29q98 0 98 -98q0 -44 -32 -70.5t-66 -26.5q-99 0 -99 97zM29 0v1434h315v-1434h-315zM233 1596q0 40 29.5 69t69.5 29q98 0 98 -98q0 -39 -29.5 -68t-68.5 -29q-99 0 -99 97z" />
<glyph unicode="&#x408;" horiz-adv-x="743" d="M32 212v364h278v-354q0 -35 44 -35t44 35v1212h315v-1189q0 -258 -357 -258q-127 0 -225.5 62t-98.5 163z" />
<glyph unicode="&#x409;" horiz-adv-x="1331" d="M25 0v201q33 -13 73 -13q56 0 56 95v1151h720v-529q236 0 324 -45t88 -209v-397q0 -143 -86 -198.5t-288 -55.5h-353v1247h-110v-1079q0 -184 -238 -184q-104 0 -186 16zM874 205q105 0 105 76v344q0 75 -105 75v-495z" />
<glyph unicode="&#x40a;" horiz-adv-x="1198" d="M35 0v1434h315v-572h84v572h316v-529q235 0 323 -45t88 -209v-397q0 -144 -87 -199t-289 -55h-351v688h-84v-688h-315zM750 205q104 0 104 76v344q0 75 -104 75v-495z" />
<glyph unicode="&#x40b;" horiz-adv-x="913" d="M23 1247v187h667v-187h-196v-162q55 43 176 43q75 0 141 -42.5t66 -118.5v-967h-285v895q0 53 -49 53t-49 -51v-897h-285v1247h-186z" />
<glyph unicode="&#x40c;" horiz-adv-x="840" d="M35 0v1434h295v-500l108 358q46 152 199 152q95 0 143 -12v-191q-81 0 -112 -102l-105 -342l277 -797h-336l-174 563v-563h-295zM291 1499l61 185h215l-119 -185h-157z" />
<glyph unicode="&#x40e;" horiz-adv-x="819" d="M8 1434h295l129 -686l94 686h279l-232 -1184q-28 -142 -89.5 -197t-178.5 -55h-192v184q110 0 138 11.5t28 64.5q0 9 -7 39zM120 1709h156q19 -103 133 -103q115 0 133 103h156q-24 -238 -289 -238q-268 0 -289 238z" />
<glyph unicode="&#x40f;" horiz-adv-x="801" d="M35 0v1434h317v-1250h94v1250h318v-1434h-246v-246h-233v246h-250z" />
<glyph unicode="&#x410;" horiz-adv-x="901" d="M15 0l236 1434h399l236 -1434h-312l-53 385h-141l-53 -385h-312zM407 584h88l-45 428z" />
<glyph unicode="&#x411;" horiz-adv-x="799" d="M35 0v1434h583v-185h-276v-344q235 0 323.5 -45t88.5 -209v-397q0 -123 -73.5 -188.5t-303.5 -65.5h-342zM342 205q104 -1 104 76v344q0 75 -93 75h-11v-495z" />
<glyph unicode="&#x412;" horiz-adv-x="776" d="M33 0v1434h371q133 0 231 -60.5t98 -193.5v-199q0 -151 -184 -213q194 -48 194 -207v-278q0 -142 -92.5 -212.5t-220.5 -70.5h-397zM348 184q88 0 88 76v363q0 75 -88 75v-514zM348 854q88 0 88 76v244q0 75 -88 75v-395z" />
<glyph unicode="&#x413;" horiz-adv-x="643" d="M35 0v1434h589v-184h-272v-1250h-317z" />
<glyph unicode="&#x414;" horiz-adv-x="1386" d="M37 225h123q93 134 140.5 297t56 295t8.5 617h749v-1209h236v-532h-236v307h-856v-307h-221v532zM481 225h326v983h-150q0 -636 -176 -983z" />
<glyph unicode="&#x415;" horiz-adv-x="668" d="M35 0v1434h612v-185h-297v-387h268v-174h-268v-504h301v-184h-616z" />
<glyph unicode="&#x416;" horiz-adv-x="1233" d="M10 0q56 29 56 444q0 217 393 281h-88q-108 0 -206.5 70.5t-98.5 193.5q0 416 -56 445h316q43 -49 49 -235l-1 9l-1 -63v-128q0 -93 10.5 -110.5t75.5 -17.5v545h315v-545h35q56 0 56 152q0 255 4.5 305t37.5 88h316q-56 -29 -56 -445q0 -104 -87 -184t-218 -80h-88 q393 -64 393 -281q0 -402 56 -444h-316q-50 58 -50 299l3 175q0 50 -15.5 60.5t-70.5 10.5v-545h-315v545h-35q-56 0 -56 -154q0 -252 -4.5 -302.5t-37.5 -88.5h-316z" />
<glyph unicode="&#x417;" horiz-adv-x="768" d="M37 256v342h289v-340q0 -53 57 -53t57 53v332q0 56 -29.5 77t-105.5 21v162q135 0 135 84v254q0 43 -57 43q-59 0 -59 -43v-264h-279v266q0 254 352 254q143 0 247 -60t104 -194v-197q0 -176 -164 -231q168 -44 168 -266v-213q0 -299 -355 -299q-360 0 -360 272z" />
<glyph unicode="&#x418;" horiz-adv-x="870" d="M37 0v1434h262v-654l200 654h339v-1434h-263v764l-215 -764h-323z" />
<glyph unicode="&#x419;" horiz-adv-x="870" d="M37 0v1434h262v-654l200 654h339v-1434h-263v764l-215 -764h-323zM146 1720h156q19 -103 133 -103q115 0 133 103h156q-24 -238 -289 -238q-268 0 -289 238z" />
<glyph unicode="&#x41a;" horiz-adv-x="840" d="M35 0v1434h295v-500l108 358q46 152 199 152q95 0 143 -12v-191q-81 0 -112 -102l-105 -342l277 -797h-336l-174 563v-563h-295z" />
<glyph unicode="&#x41b;" horiz-adv-x="901" d="M25 0v201q32 -13 73 -13q35 0 45.5 16t10.5 79v1151h710v-1434h-305v1247h-110v-1079q0 -184 -238 -184q-104 0 -186 16z" />
<glyph unicode="&#x41c;" horiz-adv-x="1167" d="M36 0v1434h405l144 -744l125 744h422v-1434h-281v805l-164 -805h-217l-188 805v-805h-246z" />
<glyph unicode="&#x41d;" horiz-adv-x="778" d="M30 0v1434h315v-572h88v572h315v-1434h-315v688h-88v-688h-315z" />
<glyph unicode="&#x41e;" horiz-adv-x="782" d="M32 245v923q0 279 362 279q357 0 357 -277v-923q0 -125 -99.5 -192.5t-259.5 -67.5q-360 0 -360 258zM339 230q0 -43 53 -43q51 0 51 43v977q0 43 -51 43q-53 0 -53 -43v-977z" />
<glyph unicode="&#x41f;" horiz-adv-x="1200" d="M20 1249v185h1160v-185h-144v-1249h-284v1249h-299v-1249h-285v1249h-148z" />
<glyph unicode="&#x420;" horiz-adv-x="776" d="M35 0v1434h331q197 0 292.5 -50t95.5 -204v-398q0 -141 -78 -199.5t-334 -54.5v-528h-307zM342 733q105 0 105 76v344q0 76 -105 76v-496z" />
<glyph unicode="&#x421;" horiz-adv-x="758" d="M34 245v923q0 279 364 279q326 0 326 -254v-260h-287v284q0 35 -43 35q-45 0 -45 -35v-995q0 -35 45 -35q43 0 43 35v354h287v-364q0 -102 -100 -163.5t-226 -61.5q-364 0 -364 258z" />
<glyph unicode="&#x422;" horiz-adv-x="717" d="M25 1247v187h667v-187h-176v-1247h-315v1247h-176z" />
<glyph unicode="&#x423;" horiz-adv-x="819" d="M8 1434h295l129 -686l94 686h279l-232 -1184q-28 -142 -89.5 -197t-178.5 -55h-192v184q110 0 138 11.5t28 64.5q0 9 -7 39z" />
<glyph unicode="&#x424;" horiz-adv-x="1206" d="M37 715q0 479 405 479v240h316v-240q218 0 314.5 -141.5t96.5 -339.5q0 -218 -108.5 -351t-302.5 -133v-229h-316v229q-405 0 -405 486zM274 713q0 -279 168 -279v555h-2q-79 0 -122.5 -78.5t-43.5 -197.5zM758 434h4q166 0 166 279q0 110 -45.5 193t-124.5 83v-555z" />
<glyph unicode="&#x425;" horiz-adv-x="932" d="M8 0l248 815l-184 619h303l112 -416l125 416h283l-215 -664l246 -770h-338l-144 461l-135 -461h-301z" />
<glyph unicode="&#x426;" horiz-adv-x="1034" d="M35 0v1434h317v-1250h94v1250h318v-1254h237v-385h-237v205h-729z" />
<glyph unicode="&#x427;" horiz-adv-x="733" d="M35 426v1008h284v-936q0 -54 50 -54q49 0 49 52v938h284v-1434h-284v307q-55 -43 -176 -43q-77 0 -142 41.5t-65 120.5z" />
<glyph unicode="&#x428;" horiz-adv-x="1311" d="M37 0v1434h307v-1209h148v1209h307v-1209h149v1209h307v-1434h-1218z" />
<glyph unicode="&#x429;" horiz-adv-x="1540" d="M37 0v1434h307v-1209h148v1209h307v-1209h149v1209h307v-1254h238v-385h-238v205h-1218z" />
<glyph unicode="&#x42a;" horiz-adv-x="963" d="M8 1249v185h508v-531h75q218 0 277.5 -63.5t59.5 -188.5v-397q0 -143 -86 -198.5t-288 -55.5h-345v1249h-201zM516 205q105 0 105 76v344q0 75 -105 75v-495z" />
<glyph unicode="&#x42b;" horiz-adv-x="1157" d="M35 0v1434h307v-529q238 0 325 -44.5t87 -209.5v-397q0 -145 -87 -199.5t-310 -54.5h-322zM342 205q104 0 104 71v358q0 66 -73 66h-31v-495zM813 0v1434h315v-1434h-315z" />
<glyph unicode="&#x42c;" horiz-adv-x="776" d="M35 0v1434h307v-529q236 0 324 -45.5t88 -208.5v-397q0 -126 -74.5 -190t-302.5 -64h-342zM342 205q104 0 104 76v344q0 75 -93 75h-11v-495z" />
<glyph unicode="&#x42d;" horiz-adv-x="758" d="M33 209q0 -101 99 -163t227 -62q364 0 364 258v923q0 279 -364 279q-326 0 -326 -254v-137h287q0 142 5.5 169.5t39.5 27.5q43 0 43 -42v-368h-279v-185h279v-436q0 -35 -45 -35q-43 0 -43 35v232h-287v-242z" />
<glyph unicode="&#x42e;" horiz-adv-x="1223" d="M37 0v1434h315v-564h115q0 302 12 382t89.5 136t261.5 56q356 0 356 -277v-923q0 -260 -358 -260q-361 0 -361 258v424h-115v-666h-315zM774 227q0 -43 54 -43q51 0 51 43v977q0 43 -51 43q-54 0 -54 -43v-977z" />
<glyph unicode="&#x42f;" horiz-adv-x="821" d="M8 -2h315q51 61 51 346v2l-2 86q-3 179 -3 183q0 73 98 73v-688h315v1434h-389q-133 0 -231.5 -61t-98.5 -193v-172q0 -167 195 -226q-196 -46 -196 -237l5 -157q0 -344 -59 -390zM369 938v236q0 75 98 75v-387q-98 0 -98 76z" />
<glyph unicode="&#x430;" horiz-adv-x="739" d="M36 166v233q0 78 56.5 136t227.5 145q99 50 99 80v172q0 57 -49 57q-56 0 -56 -139q0 -25 3 -74q4 -49 4 -74h-275v232q0 235 340 235q318 0 318 -245v-924h-252v45q-32 -61 -183 -61q-233 0 -233 182zM321 217q0 -53 51 -53q47 0 47 53v299q-98 -24 -98 -88v-211z" />
<glyph unicode="&#x431;" d="M35 0v1053q0 409 321 409q39 0 115 -6q77 -6 116 -6q69 0 107 12v-245q-30 -19 -110 -19q-28 0 -83 5t-83 5q-60 0 -79.5 -33t-19.5 -151q55 43 177 43q83 0 144.5 -45.5t61.5 -116.5v-731q0 -87 -77 -138.5t-185 -51.5q-91 0 -166 55l-24 -39h-215zM319 217 q0 -53 50 -53q49 0 49 53v617q0 53 -49 53q-50 0 -50 -51v-619z" />
<glyph unicode="&#x432;" horiz-adv-x="776" d="M35 0v1161h371q133 0 231 -60.5t98 -193.5v-90q0 -148 -184 -213q131 -34 162.5 -88.5t31.5 -232.5q0 -133 -85.5 -208t-227.5 -75h-397zM350 184q88 0 88 76v199q0 76 -88 76v-351zM350 690q88 0 88 76v135q0 76 -88 76v-287z" />
<glyph unicode="&#x433;" horiz-adv-x="643" d="M35 0v1161h594v-184h-277v-977h-317z" />
<glyph unicode="&#x434;" horiz-adv-x="1311" d="M37 205h123q205 196 205 457v499h667v-956h236v-512h-236v307h-774v-307h-221v512zM481 205h264v751h-108v-161q0 -214 -24.5 -297.5t-131.5 -292.5z" />
<glyph unicode="&#x435;" horiz-adv-x="731" d="M32 229v695q0 245 332 245q335 0 335 -235v-442h-383v-271q0 -59 50 -59q49 0 49 59v234h284v-236q0 -235 -335 -235q-332 0 -332 245zM316 666h99v266q0 57 -49 57q-50 0 -50 -57v-266z" />
<glyph unicode="&#x436;" horiz-adv-x="1130" d="M10 0q56 49 56 307q0 111 81.5 174.5t280.5 106.5q-217 0 -292 84.5t-75 289.5q0 161 -51 199h295q42 -49 44 -243q1 -166 54 -166h25v409h285v-409h24q53 0 54 165q1 194 45 244h284q-43 -33 -50 -190q-11 -265 -92 -324t-187 -59h-78q352 -68 352 -281q0 -268 55 -307 h-284q-42 49 -45 242q-2 166 -54 166h-24v-408h-285v408h-25q-52 0 -54 -166q-2 -193 -44 -242h-295z" />
<glyph unicode="&#x437;" horiz-adv-x="758" d="M37 209v201h287v-191q0 -35 43 -35q45 0 45 35v303h-279v185h279v241q0 35 -45 35q-49 0 -49 -71l6 -85h-287v97q0 254 325 254q365 0 365 -279v-657q0 -125 -100.5 -191.5t-264.5 -66.5q-117 0 -221 58.5t-104 166.5z" />
<glyph unicode="&#x438;" horiz-adv-x="870" d="M35 0v1161h262v-602l262 602h277v-1161h-262v532l-215 -532h-324z" />
<glyph unicode="&#x439;" horiz-adv-x="870" d="M35 0v1161h262v-602l262 602h277v-1161h-262v532l-215 -532h-324zM140 1487h156q19 -103 133 -103q115 0 133 103h156q-24 -238 -289 -238q-268 0 -289 238z" />
<glyph unicode="&#x43a;" horiz-adv-x="840" d="M35 0v1161h295v-377q135 311 189 350.5t118 39.5q85 0 143 -15v-207q-57 0 -79.5 -27.5t-137.5 -277.5l277 -647h-336l-174 430v-430h-295z" />
<glyph unicode="&#x43b;" horiz-adv-x="901" d="M25 0v201q32 -13 73 -13q35 0 45.5 16t10.5 79l-2 878h712v-1161h-305v975h-110v-807q0 -184 -238 -184q-104 0 -186 16z" />
<glyph unicode="&#x43c;" horiz-adv-x="1167" d="M37 0v1161h405l144 -743l125 743h422v-1161h-281v819l-164 -819h-217l-188 819v-819h-246z" />
<glyph unicode="&#x43d;" horiz-adv-x="778" d="M35 0v1161h315v-434h84v434h316v-1161h-316v553h-84v-553h-315z" />
<glyph unicode="&#x43e;" horiz-adv-x="782" d="M26 229v695q0 245 339 245q131 0 230.5 -57t99.5 -178v-715q0 -235 -330 -235q-339 0 -339 245zM311 221q0 -59 50 -59q49 0 49 59v711q0 57 -49 57q-50 0 -50 -57v-711z" />
<glyph unicode="&#x43f;" horiz-adv-x="778" d="M39 1161h713v-1161h-306v975h-110v-975h-295z" />
<glyph unicode="&#x440;" d="M31 -246v1407h215l24 -47q70 55 166 55q97 0 179.5 -49t82.5 -141v-834q0 -73 -60 -117t-146 -44q-119 0 -177 43v-273h-284zM315 215q0 -51 50 -51q49 0 49 53v719q0 53 -49 53q-50 0 -50 -53v-721z" />
<glyph unicode="&#x441;" d="M31 229v695q0 245 338 245q329 0 329 -235v-287h-284v285q0 57 -49 57q-50 0 -50 -57v-711q0 -59 50 -59q49 0 49 59v281h284v-283q0 -235 -329 -235q-338 0 -338 245z" />
<glyph unicode="&#x442;" horiz-adv-x="717" d="M27 975v186h667v-186h-176v-975h-315v975h-176z" />
<glyph unicode="&#x443;" horiz-adv-x="791" d="M7 1161h285l119 -614l94 614h278l-221 -1155q-34 -177 -91.5 -214.5t-159.5 -37.5h-199v156q112 0 139 11t27 65t-123 563z" />
<glyph unicode="&#x444;" horiz-adv-x="1118" d="M35 174v834q0 74 60.5 117.5t146.5 43.5q118 0 176 -43v308h284v-291q41 26 121 26q105 0 183.5 -52t78.5 -138v-834q0 -73 -60 -117t-146 -44q-119 0 -177 43v-273h-284v252q-42 -22 -121 -22q-101 0 -181.5 47t-80.5 143zM319 217q0 -53 50 -53q49 0 49 53v721 q0 51 -49 51q-50 0 -50 -53v-719zM702 215q0 -51 50 -51q49 0 49 53v719q0 53 -49 53q-50 0 -50 -53v-721z" />
<glyph unicode="&#x445;" horiz-adv-x="801" d="M6 0l223 614l-217 547h301l97 -301l77 301h271l-191 -561l228 -600h-314l-98 315l-92 -315h-285z" />
<glyph unicode="&#x446;" horiz-adv-x="1034" d="M35 0v1161h317v-977h94v977h318v-981h237v-385h-237v205h-729z" />
<glyph unicode="&#x447;" horiz-adv-x="733" d="M35 426v735h284v-663q0 -54 50 -54q49 0 49 52v665h284v-1161h-284v307q-55 -43 -176 -43q-77 0 -142 41.5t-65 120.5z" />
<glyph unicode="&#x448;" horiz-adv-x="1311" d="M37 0v1161h307v-936h148v936h307v-936h149v936h307v-1161h-1218z" />
<glyph unicode="&#x449;" horiz-adv-x="1540" d="M37 0v1161h307v-936h148v936h307v-936h149v936h307v-981h238v-385h-238v205h-1218z" />
<glyph unicode="&#x44a;" horiz-adv-x="963" d="M8 977v184h508v-358q235 0 323.5 -45t88.5 -209v-295q0 -146 -88.5 -200t-323.5 -54h-307v977h-201zM516 205q105 0 105 76v241q0 76 -105 76v-393z" />
<glyph unicode="&#x44b;" horiz-adv-x="1157" d="M35 0v1161h307v-358q235 0 323.5 -45t88.5 -209v-295q0 -145 -88.5 -199.5t-323.5 -54.5h-307zM342 205q104 0 104 76v241q0 76 -104 76v-393zM813 0v1161h315v-1161h-315z" />
<glyph unicode="&#x44c;" horiz-adv-x="776" d="M35 0v1161h307v-358q234 0 323 -46t89 -208v-295q0 -145 -88.5 -199.5t-323.5 -54.5h-307zM342 205q104 0 104 76v241q0 76 -104 76v-393z" />
<glyph unicode="&#x44d;" d="M29 219q0 -235 329 -235q338 0 338 245v695q0 245 -338 245q-329 0 -329 -235v-184h284q0 21 -3 62q-4 41 -4 62q0 115 56 115q50 0 50 -57v-277h-99v-163h99v-271q0 -59 -50 -59q-56 0 -56 118q0 20 4 59q3 40 3 60h-284v-180z" />
<glyph unicode="&#x44e;" horiz-adv-x="1239" d="M45 0v1161h315v-446h115q0 265 55 360.5t308 95.5q356 0 356 -276v-651q0 -260 -358 -260q-228 0 -295 86.5t-67 293.5v71q0 68 0.5 78t0.5 -3h-115v-510h-315zM782 227q0 -43 54 -43q51 0 51 43v705q0 43 -51 43q-54 0 -54 -43v-705z" />
<glyph unicode="&#x44f;" horiz-adv-x="821" d="M2 -2q55 40 55 260q0 161 29 223t166 97q-133 43 -164 101t-31 228q0 121 91 187.5t239 66.5h389v-1161h-315v483q-96 0 -96 -75v-208q0 -148 -48 -202h-315zM365 733q0 -76 96 -76v320q-96 0 -96 -76v-168z" />
<glyph unicode="&#x451;" horiz-adv-x="731" d="M32 229v695q0 245 332 245q335 0 335 -235v-442h-383v-271q0 -59 50 -59q49 0 49 59v234h284v-236q0 -235 -335 -235q-332 0 -332 245zM126 1346q0 40 29.5 69t69.5 29q98 0 98 -98q0 -44 -32 -70.5t-66 -26.5q-99 0 -99 97zM316 666h99v266q0 57 -49 57q-50 0 -50 -57 v-266zM413 1346q0 40 29.5 69t69.5 29q98 0 98 -98q0 -39 -29.5 -68t-68.5 -29q-99 0 -99 97z" />
<glyph unicode="&#x452;" horiz-adv-x="774" d="M0 1163v168h70v103h282v-103h244v-168h-244v-123q27 25 146 25q136 0 186 -76.5t50 -253.5v-749q0 -326 -365 -326v229q53 0 66.5 19.5t13.5 91.5v772q0 88 -48 88q-49 0 -49 -90v-770h-282v1163h-70z" />
<glyph unicode="&#x453;" d="M39 0v1161h285v-39q57 47 176 47q85 0 146 -45.5t61 -119.5v-324h-285v252q0 53 -49 53t-49 -51v-934h-285zM186 1434h235l-39 -225h-157z" />
<glyph unicode="&#x454;" d="M33 229v695q0 245 338 245q329 0 329 -235v-184h-284q0 21 3 62q4 41 4 62q0 115 -56 115q-50 0 -50 -57v-277h99v-163h-99v-271q0 -59 50 -59q56 0 56 118q0 20 -4 59q-3 40 -3 60h284v-180q0 -235 -329 -235q-338 0 -338 245z" />
<glyph unicode="&#x455;" horiz-adv-x="725" d="M31 219v248h284v-246q0 -59 48 -59t48 113q0 147 -59 190q-223 117 -269 163.5t-46 139.5v156q0 245 332 245q323 0 323 -235v-229h-278l6 139q0 145 -53 145t-53 -91q0 -94 23.5 -142t261.5 -165q99 -71 99 -188v-174q0 -245 -337 -245q-330 0 -330 235z" />
<glyph unicode="&#x456;" horiz-adv-x="340" d="M27 0v1161h285v-1161h-285zM27 1225v209h285v-209h-285z" />
<glyph unicode="&#x457;" horiz-adv-x="340" d="M-64 1346q0 40 29.5 69t69.5 29q98 0 98 -98q0 -44 -32 -70.5t-66 -26.5q-99 0 -99 97zM27 0v1161h285v-1161h-285zM223 1346q0 40 29.5 69t69.5 29q98 0 98 -98q0 -39 -29.5 -68t-68.5 -29q-99 0 -99 97z" />
<glyph unicode="&#x458;" horiz-adv-x="365" d="M-121 -78q112 0 136 11t24 69v1159h285v-1188q0 -219 -232 -219h-213v168zM39 1225v209h285v-209h-285z" />
<glyph unicode="&#x459;" horiz-adv-x="1331" d="M25 0v201q32 -13 73 -13q35 0 45.5 16t10.5 79v878h720v-358q236 0 324 -45t88 -209v-295q0 -146 -88.5 -200t-323.5 -54h-315v975h-110v-807q0 -184 -238 -184q-104 0 -186 16zM874 205q105 0 105 76v241q0 76 -105 76v-393z" />
<glyph unicode="&#x45a;" horiz-adv-x="1198" d="M35 0v1161h315v-463h84v463h316v-358q235 0 323 -45.5t88 -208.5v-295q0 -113 -62 -183.5t-349 -70.5h-316v524h-84v-524h-315zM750 205q104 0 104 76v241q0 76 -104 76v-393z" />
<glyph unicode="&#x45b;" horiz-adv-x="739" d="M0 1163v168h35v103h284v-103h310v-168h-310v-159q55 43 177 43q75 0 140.5 -42.5t65.5 -119.5v-885h-284v813q0 53 -49 53q-50 0 -50 -51v-815h-284v1163h-35z" />
<glyph unicode="&#x45c;" horiz-adv-x="840" d="M35 0v1161h295v-377q135 311 189 350.5t118 39.5q85 0 143 -15v-207q-57 0 -79.5 -27.5t-137.5 -277.5l277 -647h-336l-174 430v-430h-295zM262 1434h235l-39 -225h-157z" />
<glyph unicode="&#x45e;" horiz-adv-x="791" d="M7 1161h285l119 -614l94 614h278l-221 -1155q-34 -177 -91.5 -214.5t-159.5 -37.5h-199v156q112 0 139 11t27 65t-123 563zM101 1487h156q19 -103 133 -103q115 0 133 103h156q-24 -238 -289 -238q-268 0 -289 238z" />
<glyph unicode="&#x45f;" horiz-adv-x="801" d="M35 0v1161h317v-977h94v977h318v-1161h-246v-246h-233v246h-250z" />
<glyph unicode="&#x490;" horiz-adv-x="881" d="M35 0v1434h596v200h217v-385h-496v-1249h-317z" />
<glyph unicode="&#x491;" horiz-adv-x="881" d="M35 0v1161l596 -2v203h217v-385h-496v-977h-317z" />
<glyph unicode="&#x2000;" horiz-adv-x="860" />
<glyph unicode="&#x2001;" horiz-adv-x="1720" />
<glyph unicode="&#x2002;" horiz-adv-x="860" />
<glyph unicode="&#x2003;" horiz-adv-x="1720" />
<glyph unicode="&#x2004;" horiz-adv-x="573" />
<glyph unicode="&#x2005;" horiz-adv-x="430" />
<glyph unicode="&#x2006;" horiz-adv-x="286" />
<glyph unicode="&#x2007;" horiz-adv-x="286" />
<glyph unicode="&#x2008;" horiz-adv-x="215" />
<glyph unicode="&#x2009;" horiz-adv-x="344" />
<glyph unicode="&#x200a;" horiz-adv-x="95" />
<glyph unicode="&#x2010;" horiz-adv-x="461" d="M37 510v161h407v-161h-407z" />
<glyph unicode="&#x2011;" horiz-adv-x="461" d="M37 510v161h407v-161h-407z" />
<glyph unicode="&#x2012;" horiz-adv-x="461" d="M37 510v161h407v-161h-407z" />
<glyph unicode="&#x2013;" horiz-adv-x="801" d="M0 279v161h801v-161h-801z" />
<glyph unicode="&#x2014;" horiz-adv-x="1096" d="M0 279v161h1096v-161h-1096z" />
<glyph unicode="&#x2018;" horiz-adv-x="303" d="M21 1053v143q0 130 164 238l58 -48q-68 -68 -74 -124h113v-209h-261z" />
<glyph unicode="&#x2019;" horiz-adv-x="289" d="M14 1225v209h260v-144q0 -130 -163 -237l-58 47q69 68 74 125h-113z" />
<glyph unicode="&#x201a;" horiz-adv-x="322" d="M31 0v209h260v-143q0 -130 -164 -238l-57 47q67 67 73 125h-112z" />
<glyph unicode="&#x201c;" horiz-adv-x="586" d="M16 1053v143q0 130 164 238l58 -48q-68 -68 -74 -124h113v-209h-261zM309 1053v143q0 130 164 238l58 -48q-68 -68 -74 -124h112v-209h-260z" />
<glyph unicode="&#x201d;" horiz-adv-x="586" d="M36 1226v209h260v-143q0 -135 -164 -238l-57 47q68 68 74 125h-113zM329 1226v209h260v-143q0 -135 -164 -238l-57 47q67 67 73 125h-112z" />
<glyph unicode="&#x201e;" horiz-adv-x="625" d="M36 0v209h260v-143q0 -135 -164 -238l-57 47q68 68 74 125h-113zM329 0v209h260v-143q0 -135 -164 -238l-57 47q67 67 73 125h-112z" />
<glyph unicode="&#x2026;" horiz-adv-x="965" d="M25 0v209h260v-209h-260zM352 0v209h261v-209h-261zM680 0v209h260v-209h-260z" />
<glyph unicode="&#x202f;" horiz-adv-x="344" />
<glyph unicode="&#x2039;" horiz-adv-x="637" d="M32 354v162l573 356v-223l-352 -215l352 -213v-221z" />
<glyph unicode="&#x203a;" horiz-adv-x="637" d="M32 0v221l352 213l-352 215v223l573 -356v-162z" />
<glyph unicode="&#x205f;" horiz-adv-x="430" />
<glyph unicode="&#x2122;" horiz-adv-x="971" d="M35 1341v91h334v-91h-88v-626h-158v626h-88zM397 715v717h203l72 -369l63 369h211v-717h-141v405l-82 -405h-109l-94 405v-405h-123z" />
<glyph unicode="&#x25fc;" horiz-adv-x="1160" d="M0 0v1160h1160v-1160h-1160z" />
</font>
</defs>
</svg>
